<svg width="470" height="300" xmlns="http://www.w3.org/2000/svg"><defs><filter x="-58.9%" y="-91.5%" width="217.9%" height="283%" filterUnits="objectBoundingBox" id="a"><feGaussianBlur stdDeviation="30.522" in="SourceGraphic"/></filter></defs><g fill="none" fill-rule="evenodd"><path d="M145 220c7.5-48.033 41.114-72.928 84.719-92.345 9.53-4.243 37.258-17.907 50.197-10.487 14.404 8.261 19.234 42.398 28.084 58.18" stroke="#FFCB00" stroke-width="9" filter="url(#a)"/><path d="M103.914 89.099a.452.452 0 0 1-.24.414.733.733 0 0 1-.22.076c-.078.014-.154.02-.227.02a2.337 2.337 0 0 1-.742-.138 1.657 1.657 0 0 1-.35-.172.709.709 0 0 1-.24-.256c-.055-.092-.103-.264-.144-.518a11.312 11.312 0 0 1-.103-.883c-.028-.336-.05-.695-.069-1.077a127.19 127.19 0 0 1-.048-1.098 41.649 41.649 0 0 1-.034-1.575c0-.644.011-1.268.034-1.87.023-.604.048-1.223.076-1.858a.695.695 0 0 0-.138.014.695.695 0 0 1-.137.013 4.628 4.628 0 0 1-.742.056.969.969 0 0 1-.411-.083c-.12-.055-.179-.18-.179-.373 0-.23.05-.414.151-.552.1-.139.229-.247.385-.325a1.83 1.83 0 0 1 .508-.166 7.874 7.874 0 0 1 .59-.083.142.142 0 0 1 .055-.006c.01-.11.018-.247.028-.408l.027-.531c.01-.304.023-.629.041-.974.018-.345.037-.677.055-.994.018-.318.041-.599.069-.843.027-.244.055-.416.082-.518.046-.12.099-.216.158-.29.06-.073.172-.11.337-.11.366 0 .65.12.85.359.202.24.303.534.303.884 0 .405-.011.81-.034 1.215a91.97 91.97 0 0 0-.062 1.23l-.041.703c.229-.027.457-.069.686-.124.22-.046.442-.087.666-.124.225-.037.442-.055.653-.055.183 0 .325.048.425.145.101.096.151.237.151.42 0 .203-.036.401-.11.595a.825.825 0 0 1-.384.441h.014a1.76 1.76 0 0 1-.33.076 11.3 11.3 0 0 1-.625.09l-.686.083c-.225.028-.392.046-.502.055h-.013a88.485 88.485 0 0 0-.055 3.052c0 .71.02 1.462.062 2.258.04.796.112 1.554.212 2.272l.11.621a8.3 8.3 0 0 1 .096.463c.028.152.042.301.042.449zm7.429-2.182c0 .276-.076.561-.227.856a3.324 3.324 0 0 1-.583.808c-.238.244-.51.444-.818.6a1.996 1.996 0 0 1-.913.235c-.43 0-.8-.085-1.112-.255a2.64 2.64 0 0 1-.81-.69 3.77 3.77 0 0 1-.556-.988 7.41 7.41 0 0 1-.337-1.14 9.425 9.425 0 0 1-.171-1.173 13.206 13.206 0 0 1-.049-1.07 11.809 11.809 0 0 1 .213-2.155 8.63 8.63 0 0 1 .323-1.201c.137-.396.309-.75.515-1.064a2.66 2.66 0 0 1 .742-.759c.288-.193.62-.29.995-.29.293 0 .556.06.79.18.233.12.43.278.59.476.16.198.284.426.371.683.087.258.13.525.13.801 0 .36-.082.75-.247 1.174a6.54 6.54 0 0 1-.638 1.23 6.473 6.473 0 0 1-.88 1.07 4.12 4.12 0 0 1-.967.725c.018.165.055.407.11.725.055.317.13.632.226.945.096.313.21.585.343.815.133.23.291.345.474.345a.372.372 0 0 0 .24-.082.815.815 0 0 0 .186-.221 1.86 1.86 0 0 0 .144-.304l.117-.318.082-.193a.675.675 0 0 0 .035-.055l.02-.042c.064-.12.126-.23.186-.331a.812.812 0 0 1 .254-.263h-.014a.196.196 0 0 1 .117-.062.7.7 0 0 1 .446.09 1.505 1.505 0 0 1 .577.559.693.693 0 0 1 .096.339zm-2.72-6.09c0-.092-.004-.19-.013-.29a.735.735 0 0 0-.069-.263c-.128.157-.24.343-.336.56a4.734 4.734 0 0 0-.24.676 8.379 8.379 0 0 0-.247 1.374c.237-.285.448-.61.631-.973.183-.364.275-.725.275-1.084zm5.617 8.548c0 .212-.062.35-.185.414a.955.955 0 0 1-.446.097 3.05 3.05 0 0 1-.46-.035 1.479 1.479 0 0 1-.426-.131 1.07 1.07 0 0 1-.343-.262.929.929 0 0 1-.2-.428 8.467 8.467 0 0 1-.22-1.623 47.366 47.366 0 0 1-.027-1.637v-1.698c0-.773.032-1.577.096-2.41a137.1 137.1 0 0 1 .206-2.41c0-.027.005-.06.014-.096a.38.38 0 0 0 .014-.083c.009-.101.023-.212.041-.332.018-.12.048-.227.09-.324a.628.628 0 0 1 .178-.242.469.469 0 0 1 .309-.096c.146 0 .286.03.419.09.132.06.249.137.35.234.1.097.18.214.24.352.06.138.09.281.09.428 0 .184-.008.375-.021.573-.014.198-.03.39-.048.574-.019.128-.03.225-.035.29l-.02.317a6.64 6.64 0 0 1 .377-.587c.142-.198.3-.373.474-.525.174-.151.364-.276.57-.372.206-.097.428-.145.666-.145.238 0 .435.039.59.117.156.078.28.184.371.318.092.133.156.292.193.476.036.184.054.378.054.58a9.766 9.766 0 0 1-.027.732 9.647 9.647 0 0 0-.007 1.402 53 53 0 0 0 .048.683c.092-.304.204-.649.337-1.036a15.137 15.137 0 0 1 1.057-2.382 6.65 6.65 0 0 1 .7-1.042c.252-.304.524-.55.817-.74.293-.188.6-.282.92-.282.504 0 .859.147 1.065.442.206.294.309.672.309 1.132a6.375 6.375 0 0 1-.055.815 35.196 35.196 0 0 0-.137 3.066v.262c0 .644.027 1.252.082 1.823.055.57.165 1.174.33 1.809l.11.373c.036.129.08.271.13.428.05.156.094.308.13.456.037.147.069.285.096.414.028.129.041.23.041.304 0 .193-.068.322-.206.386a.991.991 0 0 1-.425.097c-.092 0-.197-.002-.316-.007a2.205 2.205 0 0 1-.35-.041 1.615 1.615 0 0 1-.33-.104.704.704 0 0 1-.254-.18v.014a.723.723 0 0 1-.178-.303 2.538 2.538 0 0 1-.083-.36l-.027-.124a38.617 38.617 0 0 1-.323-1.34 14.725 14.725 0 0 1-.33-2.417 27.475 27.475 0 0 1-.034-1.463c0-.47.02-.948.062-1.436.041-.488.085-.967.13-1.436a2.11 2.11 0 0 1 .028-.318 10.72 10.72 0 0 0-.913 1.789 23.5 23.5 0 0 0-.7 1.995 27.582 27.582 0 0 0-.536 2.05 76.414 76.414 0 0 0-.405 1.955c0 .009.02.062.061.159.042.096.083.207.124.331l.117.359a.987.987 0 0 1 .055.228c0 .212-.069.34-.206.387a1.33 1.33 0 0 1-.426.069c-.11 0-.229-.005-.357-.014a1.76 1.76 0 0 1-.72-.214.679.679 0 0 1-.255-.256c-.055-.092-.119-.31-.192-.656a37.37 37.37 0 0 1-.467-2.713c-.073-.534-.142-1.04-.206-1.52a40.914 40.914 0 0 1-.151-1.256 8.788 8.788 0 0 1-.055-.732v-.207a12.496 12.496 0 0 0-.728 2.044 18.93 18.93 0 0 0-.44 2.14l-.054.249a1.95 1.95 0 0 0-.041.214c-.01.069-.014.136-.014.2 0 .101.011.226.034.373.023.147.053.308.09.483.045.24.084.486.116.74.032.252.048.503.048.752zm11.631-3.522c0 .442-.002.847-.007 1.216-.004.368.003.773.021 1.215l.247-.18.151-.096a5.43 5.43 0 0 0 1.174-1.32 8.68 8.68 0 0 0 .831-1.663 10 10 0 0 0 .488-1.816 10.636 10.636 0 0 0 .15-2.237 3.595 3.595 0 0 0-.061-.587 1.86 1.86 0 0 0-.165-.504c-.073-.143-.178-.214-.316-.214-.22 0-.444.133-.673.4a5.29 5.29 0 0 0-.638.953 12.91 12.91 0 0 0-.529 1.112 16.098 16.098 0 0 0-.35.89c-.005 0-.007.005-.007.014v.014c-.055.129-.112.267-.171.414a1.76 1.76 0 0 0-.117.415 5.224 5.224 0 0 0-.041.435 8.893 8.893 0 0 0-.007.773c.004.087.007.168.007.242 0 .1.002.195.006.283.005.087.007.168.007.241zm.756 12.622c0 .203-.055.34-.165.415a.778.778 0 0 1-.44.11c-.22 0-.462-.035-.727-.104a1.194 1.194 0 0 1-.632-.38c-.046-.064-.09-.253-.13-.566-.042-.313-.08-.678-.117-1.097a50.557 50.557 0 0 1-.096-1.298 62.59 62.59 0 0 0-.083-1.181l-.055-.732c-.11-1.97-.165-3.94-.165-5.91 0-1.151.021-2.281.062-3.39.041-1.11.085-2.236.13-3.377l.056-1.45c0-.148.002-.293.007-.435a2.58 2.58 0 0 1 .048-.421.802.802 0 0 1 .171-.284c.069-.069.181-.103.337-.103.393 0 .682.117.865.352.183.235.288.523.316.863a3.443 3.443 0 0 1 1.05-.967c.408-.239.877-.359 1.408-.359.448 0 .826.102 1.133.304.306.203.551.463.734.78.183.318.314.673.392 1.064.077.391.116.775.116 1.153 0 .727-.064 1.452-.192 2.175a10.677 10.677 0 0 1-.597 2.099 9.895 9.895 0 0 1-1.023 1.92 7.954 7.954 0 0 1-1.717 1.815 3.74 3.74 0 0 1-.316.208c-.11.064-.222.12-.336.165a.84.84 0 0 1-.309.07.48.48 0 0 1-.261-.07.834.834 0 0 1-.192-.165 108.79 108.79 0 0 0 .192 4.025c.046.686.103 1.365.172 2.037.068.672.153 1.321.254 1.947.027.12.052.246.075.38.023.133.035.27.035.407zm8.527-8.63a.504.504 0 0 1-.096.317.729.729 0 0 1-.24.2c-.096.05-.202.088-.316.11a1.583 1.583 0 0 1-.309.035c-.32 0-.6-.092-.838-.276a2.531 2.531 0 0 1-.618-.711 4.272 4.272 0 0 1-.425-.995 12.44 12.44 0 0 1-.44-2.195 28.401 28.401 0 0 1-.082-.891 43.817 43.817 0 0 1-.172-2.61 72.42 72.42 0 0 1-.048-2.624 99.654 99.654 0 0 1 .254-7.153 60.817 60.817 0 0 0 .034-.808 20.163 20.163 0 0 1 .104-1.436c.022-.207.052-.352.089-.435v.014a.662.662 0 0 1 .15-.29c.065-.065.175-.097.33-.097.33 0 .61.11.838.331.229.221.343.498.343.829a3.238 3.238 0 0 1-.027.414 2.9 2.9 0 0 0-.028.346c-.027.359-.048.715-.061 1.07-.014.354-.03.711-.048 1.07a82.65 82.65 0 0 0-.138 4.75c0 .341.005.788.014 1.34a70.45 70.45 0 0 0 .172 3.811c.05.69.116 1.35.199 1.975.082.626.18 1.192.295 1.699.114.506.25.897.405 1.174a.808.808 0 0 1 .24.172 1.4 1.4 0 0 1 .206.263c.06.096.11.198.151.303a.822.822 0 0 1 .062.297zm6.207-.58c0 .183-.046.31-.137.379-.092.07-.22.104-.385.104-.43 0-.739-.115-.927-.346-.187-.23-.327-.534-.418-.911l-.083-.394a6.467 6.467 0 0 1-.068-.393 1.302 1.302 0 0 0-.055-.249 1.342 1.342 0 0 1-.055-.262 8.21 8.21 0 0 1-.405.835 4.7 4.7 0 0 1-.557.801 2.91 2.91 0 0 1-.707.601 1.63 1.63 0 0 1-.858.235c-.33 0-.604-.08-.824-.242a1.69 1.69 0 0 1-.515-.608 2.832 2.832 0 0 1-.26-.807 5.005 5.005 0 0 1-.076-.843c0-.626.061-1.305.185-2.037s.295-1.463.515-2.195c.22-.732.476-1.437.769-2.113.293-.677.613-1.268.961-1.775v.014l.083-.124c.1-.138.217-.288.35-.449a.597.597 0 0 1 .474-.242c.174 0 .325.076.453.228.128.152.22.31.274.477a2.5 2.5 0 0 1 .577.172c.147.07.261.154.343.256a.806.806 0 0 1 .165.352c.028.133.041.278.041.435v.207c0 .074-.004.147-.013.22-.01.075-.014.162-.014.263v.276c0 .093.016.212.048.36.032.147.066.299.103.455l.096.511c.046.267.085.571.117.912.032.34.07.68.117 1.022.036.35.073.688.11 1.015.036.326.073.628.11.904l.329 2.044.041.235c.018.12.039.23.062.331s.034.216.034.345zm-3.144-7.941a.475.475 0 0 0-.014-.09 6.345 6.345 0 0 1-.028-.131c-.21.451-.396.941-.556 1.47-.16.53-.293 1.069-.398 1.616a16.897 16.897 0 0 0-.234 1.644c-.05.547-.075 1.065-.075 1.553v.124c0 .037.005.074.014.111v.014c.22-.34.41-.79.57-1.347.16-.557.295-1.141.405-1.753a19.93 19.93 0 0 0 .316-3.211zm6.907 7.775a.452.452 0 0 1-.24.414.733.733 0 0 1-.22.076c-.078.014-.154.02-.227.02a2.337 2.337 0 0 1-.742-.138 1.657 1.657 0 0 1-.35-.172.709.709 0 0 1-.24-.256c-.055-.092-.103-.264-.144-.518a11.312 11.312 0 0 1-.103-.883c-.027-.336-.05-.695-.069-1.077-.018-.383-.034-.748-.048-1.098a41.643 41.643 0 0 1-.034-1.575c0-.644.011-1.268.034-1.87.023-.604.048-1.223.076-1.858a.695.695 0 0 0-.138.014.695.695 0 0 1-.137.013 4.628 4.628 0 0 1-.741.056.969.969 0 0 1-.412-.083c-.12-.055-.179-.18-.179-.373 0-.23.05-.414.151-.552.1-.139.229-.247.385-.325a1.83 1.83 0 0 1 .508-.166 7.874 7.874 0 0 1 .59-.083.142.142 0 0 1 .055-.006c.01-.11.018-.247.028-.408l.027-.531c.01-.304.023-.629.041-.974l.055-.994c.019-.318.041-.599.069-.843.027-.244.055-.416.082-.518.046-.12.099-.216.158-.29.06-.073.172-.11.337-.11.366 0 .65.12.851.359.201.24.302.534.302.884 0 .405-.011.81-.034 1.215a91.97 91.97 0 0 0-.062 1.23l-.041.703c.229-.027.458-.069.686-.124.22-.046.442-.087.666-.124.225-.037.442-.055.653-.055.183 0 .325.048.425.145.101.096.151.237.151.42 0 .203-.036.401-.11.595a.825.825 0 0 1-.384.441h.014a1.76 1.76 0 0 1-.33.076 11.3 11.3 0 0 1-.625.09l-.686.083c-.224.028-.392.046-.501.055h-.014a88.475 88.475 0 0 0-.055 3.052c0 .71.02 1.462.062 2.258.04.796.112 1.554.213 2.272l.11.621c.036.157.068.31.096.463.027.152.04.301.04.449zm7.429-2.182c0 .276-.076.561-.227.856a3.324 3.324 0 0 1-.583.808c-.238.244-.51.444-.817.6a1.996 1.996 0 0 1-.914.235c-.43 0-.8-.085-1.112-.255a2.64 2.64 0 0 1-.81-.69 3.77 3.77 0 0 1-.556-.988 7.41 7.41 0 0 1-.337-1.14 9.425 9.425 0 0 1-.171-1.173 13.206 13.206 0 0 1-.048-1.07 11.809 11.809 0 0 1 .212-2.155 8.63 8.63 0 0 1 .323-1.201c.137-.396.31-.75.515-1.064a2.66 2.66 0 0 1 .742-.759c.288-.193.62-.29.995-.29.293 0 .556.06.79.18.233.12.43.278.59.476.16.198.284.426.371.683.087.258.13.525.13.801 0 .36-.082.75-.247 1.174a6.54 6.54 0 0 1-.638 1.23 6.518 6.518 0 0 1-.879 1.07 4.145 4.145 0 0 1-.968.725c.018.165.055.407.11.725.055.317.13.632.226.945.096.313.21.585.344.815.132.23.29.345.473.345a.372.372 0 0 0 .24-.082.815.815 0 0 0 .186-.221 1.86 1.86 0 0 0 .144-.304l.117-.318.082-.193a.675.675 0 0 0 .035-.055l.02-.042c.064-.12.126-.23.186-.331a.812.812 0 0 1 .254-.263h-.014a.196.196 0 0 1 .117-.062.7.7 0 0 1 .446.09 1.505 1.505 0 0 1 .577.559.693.693 0 0 1 .096.339zm-2.72-6.09c0-.092-.004-.19-.013-.29a.735.735 0 0 0-.068-.263c-.129.157-.24.343-.337.56a4.734 4.734 0 0 0-.24.676 8.38 8.38 0 0 0-.247 1.374c.238-.285.448-.61.631-.973.183-.364.275-.725.275-1.084zm3.16 7.125c0-.092.031-.163.095-.214a.612.612 0 0 1 .24-.11 1.25 1.25 0 0 1 .29-.035h.253c.092 0 .2.003.323.007.123.005.24.023.35.055.11.033.204.083.282.152a.36.36 0 0 1 .116.283 124.061 124.061 0 0 0-.034 1.264.966.966 0 0 1-.02.228.396.396 0 0 1-.282.173 3.574 3.574 0 0 1-.955-.021.486.486 0 0 1-.302-.166.655.655 0 0 1-.116-.345 10.4 10.4 0 0 0-.076-.58 3.064 3.064 0 0 0-.103-.332 1.02 1.02 0 0 1-.062-.359zm5.973 1.147a.452.452 0 0 1-.24.414.733.733 0 0 1-.22.076c-.078.014-.154.02-.227.02a2.337 2.337 0 0 1-.742-.138 1.657 1.657 0 0 1-.35-.172.709.709 0 0 1-.24-.256c-.055-.092-.103-.264-.144-.518a11.313 11.313 0 0 1-.103-.883c-.028-.336-.05-.695-.069-1.077-.018-.383-.034-.748-.048-1.098a41.643 41.643 0 0 1-.034-1.575c0-.644.011-1.268.034-1.87.023-.604.048-1.223.076-1.858a.695.695 0 0 0-.138.014.695.695 0 0 1-.137.013 4.628 4.628 0 0 1-.741.056.969.969 0 0 1-.412-.083c-.12-.055-.179-.18-.179-.373 0-.23.05-.414.151-.552.1-.139.229-.247.385-.325a1.83 1.83 0 0 1 .508-.166 7.874 7.874 0 0 1 .59-.083.142.142 0 0 1 .055-.006c.01-.11.018-.247.028-.408l.027-.531c.01-.304.023-.629.041-.974l.055-.994c.019-.318.041-.599.069-.843.027-.244.055-.416.082-.518.046-.12.099-.216.158-.29.06-.073.172-.11.337-.11.366 0 .65.12.851.359.201.24.302.534.302.884 0 .405-.011.81-.034 1.215a91.97 91.97 0 0 0-.062 1.23l-.041.703c.229-.027.458-.069.686-.124.22-.046.442-.087.666-.124.225-.037.442-.055.653-.055.183 0 .325.048.425.145.101.096.151.237.151.42 0 .203-.036.401-.11.595a.825.825 0 0 1-.384.441h.014a1.76 1.76 0 0 1-.33.076 11.3 11.3 0 0 1-.625.09l-.686.083c-.224.028-.392.046-.501.055h-.014a88.485 88.485 0 0 0-.055 3.052c0 .71.02 1.462.062 2.258.04.796.112 1.554.213 2.272l.11.621c.036.157.068.31.096.463.027.152.04.301.04.449zm8.28-.139a.305.305 0 0 1-.116.256.767.767 0 0 1-.268.131 1.696 1.696 0 0 1-.316.055 3.301 3.301 0 0 1-.632 0 1.12 1.12 0 0 1-.309-.069.865.865 0 0 1-.268-.165 1.464 1.464 0 0 1-.247-.304 11.3 11.3 0 0 1-.432-.884l-.392-.898a25.92 25.92 0 0 0-.158-.4 8.57 8.57 0 0 0-.171-.387 62.684 62.684 0 0 1-1.25 3.025 4.442 4.442 0 0 1-.213.38c-.077.124-.213.186-.405.186a.97.97 0 0 1-.364-.09 2.058 2.058 0 0 1-.412-.235 1.784 1.784 0 0 1-.343-.324.574.574 0 0 1-.144-.36c0-.091.018-.186.055-.282a3.11 3.11 0 0 1 .123-.284h-.013c.348-.754.675-1.498.982-2.23.306-.732.61-1.47.913-2.216a15.924 15.924 0 0 1-.268-.677l-.378-1.008a118.86 118.86 0 0 1-.425-1.16 34.876 34.876 0 0 1-.68-2.078c-.078-.272-.117-.463-.117-.573 0-.185.057-.302.172-.353a.958.958 0 0 1 .391-.076c.293 0 .547.06.762.18.215.12.382.322.501.608l.145.38c.05.133.094.264.13.393l.124.345c.11.295.208.562.295.801.087.24.195.502.323.787.229-.589.441-1.199.638-1.83.197-.63.341-1.263.433-1.898l.041-.373c0-.129.018-.267.055-.414a.845.845 0 0 1 .158-.29c.06-.065.167-.097.323-.097.146 0 .288.023.425.069.138.046.261.113.371.2.11.088.2.194.268.318s.103.27.103.435c0 .258-.03.56-.09.904-.059.346-.14.71-.24 1.091a31.987 31.987 0 0 1-.72 2.362c-.133.382-.262.74-.385 1.077l-.323.877.838 1.781c.164.35.336.714.515 1.091.178.378.34.725.487 1.043.147.317.268.587.364.808.096.22.144.345.144.372zm3.584.139a.452.452 0 0 1-.24.414.733.733 0 0 1-.22.076c-.078.014-.153.02-.226.02a2.337 2.337 0 0 1-.742-.138 1.657 1.657 0 0 1-.35-.172.709.709 0 0 1-.24-.256c-.055-.092-.103-.264-.144-.518a11.313 11.313 0 0 1-.103-.883c-.028-.336-.05-.695-.07-1.077l-.047-1.098a41.643 41.643 0 0 1-.035-1.575c0-.644.012-1.268.035-1.87.023-.604.048-1.223.075-1.858a.695.695 0 0 0-.137.014.695.695 0 0 1-.137.013 4.628 4.628 0 0 1-.742.056.969.969 0 0 1-.412-.083c-.119-.055-.178-.18-.178-.373 0-.23.05-.414.15-.552.101-.139.23-.247.385-.325a1.83 1.83 0 0 1 .508-.166 7.874 7.874 0 0 1 .59-.083.142.142 0 0 1 .056-.006c.009-.11.018-.247.027-.408.01-.16.018-.338.028-.531.009-.304.023-.629.04-.974.02-.345.037-.677.056-.994.018-.318.041-.599.068-.843.028-.244.055-.416.083-.518a1.06 1.06 0 0 1 .158-.29c.06-.073.171-.11.336-.11.366 0 .65.12.852.359.201.24.302.534.302.884 0 .405-.012.81-.035 1.215-.023.405-.043.815-.061 1.23l-.042.703c.23-.027.458-.069.687-.124.22-.046.442-.087.666-.124.224-.037.442-.055.652-.055.183 0 .325.048.426.145.1.096.151.237.151.42 0 .203-.037.401-.11.595a.825.825 0 0 1-.384.441h.013a1.76 1.76 0 0 1-.33.076 11.3 11.3 0 0 1-.624.09l-.687.083c-.224.028-.391.046-.5.055h-.015a88.485 88.485 0 0 0-.054 3.052c0 .71.02 1.462.061 2.258.041.796.112 1.554.213 2.272l.11.621a8.3 8.3 0 0 1 .096.463c.028.152.041.301.041.449zm133.827-14.901c0 .19-.032.386-.095.586-.064.2-.136.39-.218.572-.11.264-.241.52-.396.77-.154.25-.331.473-.531.668-.2.195-.427.352-.682.47-.254.118-.54.177-.859.177-.563 0-1.031-.14-1.404-.422a3.054 3.054 0 0 1-.886-1.063 4.85 4.85 0 0 1-.456-1.404 8.65 8.65 0 0 1-.13-1.445c0-.336.014-.733.04-1.192.028-.459.08-.934.158-1.424.077-.491.19-.977.34-1.459.15-.481.344-.91.58-1.288.236-.377.525-.683.865-.92.341-.236.748-.354 1.22-.354a3.611 3.611 0 0 1 1.002.211c.187.069.35.16.491.273.141.114.211.243.211.388 0 .137-.06.241-.184.314a1.337 1.337 0 0 1-.436.157c-.168.031-.34.05-.518.054-.177.005-.32.007-.43.007h-.245c-.254.227-.463.561-.627 1.002-.163.44-.29.91-.381 1.41-.091.5-.155.993-.191 1.479-.037.486-.055.883-.055 1.192 0 .437.034.866.103 1.288.068.423.206.82.415 1.193.046.082.112.175.198.28.086.104.184.156.293.156.082 0 .166-.068.252-.204.087-.137.166-.296.239-.477.073-.182.132-.36.177-.532.045-.173.077-.3.095-.382a.507.507 0 0 0 .014-.122v-.137c0-.081.002-.16.007-.238a.604.604 0 0 1 .034-.184c.064-.155.148-.259.252-.314a.833.833 0 0 1 .389-.081c.136 0 .281.018.436.054.154.037.3.096.436.177.136.082.25.187.34.314a.746.746 0 0 1 .137.45zm6.544-2.535c0 .79-.066 1.578-.198 2.364a6.518 6.518 0 0 1-.811 2.229 4.971 4.971 0 0 1-.436.606 3.967 3.967 0 0 1-.539.532 2.545 2.545 0 0 1-.64.381 1.897 1.897 0 0 1-.73.143c-.4 0-.747-.093-1.043-.28a2.669 2.669 0 0 1-.763-.735 4.445 4.445 0 0 1-.532-1.036 7.635 7.635 0 0 1-.327-1.186 12.313 12.313 0 0 1-.211-2.187c0-.327.013-.686.04-1.077.028-.39.076-.79.144-1.199.068-.409.159-.813.272-1.213.114-.4.262-.774.443-1.124a4.3 4.3 0 0 1 .655-.94 2.93 2.93 0 0 1 .886-.662v.014a1.85 1.85 0 0 1 .872-.232c.182 0 .323.039.423.116.1.077.145.207.136.389.5.09.905.331 1.214.722.308.39.547.845.715 1.363a7.91 7.91 0 0 1 .341 1.594c.059.545.089 1.018.089 1.418zm-3.081-3.407c-.155 0-.3-.06-.436-.178a4.092 4.092 0 0 0-.437.907 7.43 7.43 0 0 0-.28 1.05c-.067.358-.115.72-.142 1.083-.028.363-.041.704-.041 1.022 0 .263.013.602.04 1.015.028.413.08.83.157 1.247.078.418.187.809.328 1.172.14.364.325.632.552.804.281-.163.516-.425.702-.783.186-.36.334-.752.443-1.18a8.39 8.39 0 0 0 .225-1.294c.04-.436.061-.809.061-1.118 0-.227-.014-.522-.04-.885a12.132 12.132 0 0 0-.137-1.111 6.525 6.525 0 0 0-.266-1.056c-.114-.327-.257-.573-.43-.736a.957.957 0 0 1-.3.04zm6.311 8.926c0 .21-.061.346-.184.41a.952.952 0 0 1-.443.095c-.154 0-.306-.012-.456-.035a1.474 1.474 0 0 1-.423-.129 1.06 1.06 0 0 1-.34-.259.914.914 0 0 1-.198-.422 8.31 8.31 0 0 1-.219-1.602 46.473 46.473 0 0 1-.027-1.615V71.95c0-.763.032-1.556.096-2.378.063-.823.131-1.615.204-2.378a.4.4 0 0 1 .014-.096.373.373 0 0 0 .013-.082c.01-.1.023-.209.041-.327a1.32 1.32 0 0 1 .089-.32.62.62 0 0 1 .177-.239.467.467 0 0 1 .307-.095c.145 0 .284.03.416.089.131.059.247.136.347.231.1.096.18.212.239.348.059.136.088.277.088.422a10.556 10.556 0 0 1-.054 1.036 1.816 1.816 0 0 1-.027.3c.127-.254.272-.52.436-.797a4.46 4.46 0 0 1 .566-.764c.213-.231.45-.42.708-.565.26-.145.548-.218.866-.218.264 0 .482.04.654.123.173.081.312.197.416.347.105.15.177.325.218.525.041.2.062.413.062.64 0 .31-.01.62-.028.934l-.054.933a32 32 0 0 0-.068.94c-.019.31-.028.623-.028.941 0 .382.01.775.028 1.179a21.72 21.72 0 0 0 .204 2.153c.046.296.091.525.136.689.037.136.075.293.116.47.041.177.082.359.123.545.04.186.075.366.102.538.027.173.041.327.041.464 0 .2-.08.327-.238.381a1.444 1.444 0 0 1-.47.082c-.155 0-.33-.011-.526-.034a1.476 1.476 0 0 1-.524-.157.95.95 0 0 1-.375-.572 4.587 4.587 0 0 1-.116-.723l-.041-.367c-.027-.219-.064-.505-.11-.86a37.008 37.008 0 0 1-.23-2.5 22.04 22.04 0 0 1-.042-1.342c0-.391.016-.768.048-1.132.032-.363.066-.73.102-1.103.018-.191.032-.346.041-.464.01-.118.023-.272.041-.463-.182.29-.364.631-.545 1.022-.182.39-.355.797-.518 1.22a25.72 25.72 0 0 0-.443 1.233c-.132.4-.234.75-.307 1.05l-.082.3a5.38 5.38 0 0 0-.116.435 1.918 1.918 0 0 0-.047.41c0 .163.009.351.027.565.018.213.04.416.068.606a21.121 21.121 0 0 0 .123.873 10.324 10.324 0 0 1 .102.784c.014.15.02.283.02.401zm8.193-.272a.444.444 0 0 1-.238.409.73.73 0 0 1-.219.075 1.35 1.35 0 0 1-.224.02 2.33 2.33 0 0 1-.736-.136 1.648 1.648 0 0 1-.348-.17.701.701 0 0 1-.239-.253c-.054-.09-.102-.261-.143-.51-.04-.25-.075-.541-.102-.873-.027-.332-.05-.686-.068-1.063-.018-.377-.034-.738-.048-1.084a40.86 40.86 0 0 1-.034-1.553c0-.636.011-1.252.034-1.847.023-.595.048-1.206.075-1.833a.694.694 0 0 0-.136.014.694.694 0 0 1-.137.013 4.62 4.62 0 0 1-.736.055.966.966 0 0 1-.409-.082c-.118-.055-.177-.177-.177-.368 0-.227.05-.409.15-.545.1-.136.227-.243.382-.32.154-.078.322-.132.504-.164a7.86 7.86 0 0 1 .586-.082.142.142 0 0 1 .055-.007c.009-.109.018-.243.027-.402.01-.159.018-.333.027-.524.01-.3.023-.62.041-.961.018-.34.037-.668.055-.981.018-.314.04-.59.068-.832.027-.24.054-.41.082-.51.045-.119.097-.214.156-.287.06-.073.17-.109.334-.109.364 0 .646.118.846.354.2.237.3.527.3.873 0 .4-.012.8-.035 1.199a90.4 90.4 0 0 0-.06 1.213l-.042.695c.227-.027.455-.068.682-.123.218-.045.438-.086.66-.122.224-.037.44-.055.648-.055.182 0 .323.048.423.143.1.096.15.234.15.416 0 .2-.036.395-.11.586a.816.816 0 0 1-.38.436h.013a1.757 1.757 0 0 1-.327.075c-.182.032-.389.061-.62.089l-.682.081a14.24 14.24 0 0 1-.498.055h-.013a86.809 86.809 0 0 0-.055 3.012c0 .7.02 1.442.061 2.228.041.786.112 1.533.212 2.242l.109.613c.036.155.068.307.095.457.028.15.041.297.041.443zM330 74.756c0 .273-.075.555-.225.845a3.27 3.27 0 0 1-.58.798c-.236.24-.506.438-.81.592a1.99 1.99 0 0 1-.907.232c-.427 0-.795-.084-1.104-.252a2.617 2.617 0 0 1-.804-.681 3.714 3.714 0 0 1-.552-.975 7.28 7.28 0 0 1-.334-1.124 9.25 9.25 0 0 1-.17-1.159 12.957 12.957 0 0 1-.049-1.056 11.587 11.587 0 0 1 .212-2.126c.077-.4.184-.795.32-1.186.136-.39.307-.74.511-1.049.205-.309.45-.559.736-.75a1.74 1.74 0 0 1 .989-.286c.29 0 .552.06.784.177a1.8 1.8 0 0 1 .586.47c.159.196.281.42.368.675.086.255.13.518.13.79 0 .355-.082.741-.246 1.16a6.441 6.441 0 0 1-.634 1.212c-.259.39-.55.743-.872 1.056a4.08 4.08 0 0 1-.961.716c.018.163.054.402.109.715.054.314.13.625.225.934.095.309.209.577.34.804.132.227.289.34.47.34a.37.37 0 0 0 .24-.081.806.806 0 0 0 .183-.218 1.81 1.81 0 0 0 .143-.3l.116-.313.082-.191a.666.666 0 0 0 .034-.055l.02-.04c.064-.119.126-.228.185-.328s.143-.186.252-.259h-.014a.194.194 0 0 1 .116-.061.698.698 0 0 1 .443.089c.118.063.227.143.327.238s.182.2.246.313a.68.68 0 0 1 .095.334zm-2.7-6.01a3.2 3.2 0 0 0-.013-.286.722.722 0 0 0-.068-.259 2.408 2.408 0 0 0-.334.552 4.654 4.654 0 0 0-.238.668 8.224 8.224 0 0 0-.245 1.356c.235-.282.445-.602.626-.961.182-.359.273-.715.273-1.07zm5.576 8.436c0 .21-.061.346-.184.41a.952.952 0 0 1-.443.095c-.154 0-.306-.012-.456-.035a1.474 1.474 0 0 1-.423-.129 1.06 1.06 0 0 1-.34-.259.914.914 0 0 1-.198-.422 8.31 8.31 0 0 1-.219-1.602 46.473 46.473 0 0 1-.027-1.615V71.95c0-.763.032-1.556.096-2.378.063-.823.131-1.615.204-2.378a.4.4 0 0 1 .014-.096.373.373 0 0 0 .013-.082c.01-.1.023-.209.041-.327a1.32 1.32 0 0 1 .089-.32.62.62 0 0 1 .177-.239.467.467 0 0 1 .307-.095c.145 0 .284.03.416.089.131.059.247.136.347.231.1.096.18.212.239.348.059.136.088.277.088.422a10.556 10.556 0 0 1-.054 1.036 1.816 1.816 0 0 1-.027.3c.127-.254.272-.52.436-.797a4.46 4.46 0 0 1 .566-.764c.213-.231.45-.42.708-.565.26-.145.548-.218.866-.218.264 0 .482.04.654.123.173.081.312.197.416.347.105.15.177.325.218.525.041.2.062.413.062.64 0 .31-.01.62-.028.934l-.054.933c-.027.318-.05.632-.068.94-.019.31-.028.623-.028.941 0 .382.01.775.028 1.179a21.72 21.72 0 0 0 .204 2.153c.046.296.091.525.136.689.037.136.075.293.116.47.041.177.082.359.123.545.04.186.075.366.102.538.027.173.041.327.041.464 0 .2-.08.327-.238.381a1.444 1.444 0 0 1-.47.082c-.155 0-.33-.011-.526-.034a1.476 1.476 0 0 1-.524-.157.95.95 0 0 1-.375-.572 4.587 4.587 0 0 1-.116-.723l-.041-.367c-.027-.219-.064-.505-.11-.86a37.008 37.008 0 0 1-.23-2.5 22.04 22.04 0 0 1-.042-1.342c0-.391.016-.768.048-1.132.032-.363.066-.73.102-1.103.018-.191.032-.346.041-.464.01-.118.023-.272.041-.463-.182.29-.364.631-.545 1.022-.182.39-.355.797-.518 1.22-.164.422-.312.833-.443 1.233-.132.4-.234.75-.307 1.05l-.082.3a5.38 5.38 0 0 0-.116.435 1.918 1.918 0 0 0-.047.41c0 .163.009.351.027.565.018.213.04.416.068.606a21.121 21.121 0 0 0 .123.873 10.324 10.324 0 0 1 .102.784c.014.15.02.283.02.401zm8.193-.272a.444.444 0 0 1-.238.409.73.73 0 0 1-.219.075 1.35 1.35 0 0 1-.224.02 2.33 2.33 0 0 1-.736-.136 1.648 1.648 0 0 1-.348-.17.701.701 0 0 1-.239-.253c-.054-.09-.102-.261-.143-.51-.04-.25-.075-.541-.102-.873-.027-.332-.05-.686-.068-1.063-.018-.377-.034-.738-.048-1.084a40.854 40.854 0 0 1-.034-1.553c0-.636.011-1.252.034-1.847.023-.595.048-1.206.075-1.833a.694.694 0 0 0-.136.014.694.694 0 0 1-.137.013 4.62 4.62 0 0 1-.736.055.966.966 0 0 1-.409-.082c-.118-.055-.177-.177-.177-.368 0-.227.05-.409.15-.545.1-.136.227-.243.382-.32.154-.078.322-.132.504-.164a7.86 7.86 0 0 1 .586-.082.142.142 0 0 1 .055-.007c.009-.109.018-.243.027-.402.01-.159.018-.333.027-.524.01-.3.023-.62.041-.961.018-.34.037-.668.055-.981.018-.314.04-.59.068-.832.027-.24.054-.41.082-.51.045-.119.097-.214.156-.287.06-.073.17-.109.334-.109.364 0 .646.118.846.354.2.237.3.527.3.873 0 .4-.012.8-.035 1.199a90.4 90.4 0 0 0-.06 1.213l-.042.695c.227-.027.455-.068.682-.123.218-.045.438-.086.66-.122.224-.037.44-.055.648-.055.182 0 .323.048.423.143.1.096.15.234.15.416 0 .2-.036.395-.109.586a.816.816 0 0 1-.382.436h.014a1.757 1.757 0 0 1-.327.075c-.182.032-.389.061-.62.089l-.682.081a14.24 14.24 0 0 1-.498.055h-.013a86.809 86.809 0 0 0-.055 3.012c0 .7.02 1.442.061 2.228.041.786.112 1.533.212 2.242l.109.613c.036.155.068.307.095.457.028.15.041.297.041.443zm7.034-9.65c0 .11-.038.2-.116.273a1.03 1.03 0 0 1-.28.184c-.108.05-.22.084-.333.102a1.411 1.411 0 0 1-.593-.007c-.1-.022-.2-.047-.3-.074a13.94 13.94 0 0 0-.286-.075 1.177 1.177 0 0 0-.287-.034c-.136 0-.272.022-.408.068a1.287 1.287 0 0 0-.369.19.988.988 0 0 0-.265.3.776.776 0 0 0-.103.396c0 .218.046.433.137.647.09.213.211.43.361.647.15.218.323.439.518.661.195.223.402.448.62.675.264.29.53.586.798.886.268.3.509.613.722.94.214.327.389.673.525 1.036s.205.745.205 1.145c0 .345-.057.654-.17.927a1.977 1.977 0 0 1-.478.695 2.14 2.14 0 0 1-.736.442 2.704 2.704 0 0 1-.934.157c-.09 0-.23-.018-.416-.054a7.503 7.503 0 0 1-.634-.157 20.974 20.974 0 0 1-.729-.225 6.105 6.105 0 0 1-.681-.266 3.11 3.11 0 0 1-.505-.286c-.132-.095-.198-.184-.198-.266 0-.109.05-.22.15-.334.1-.113.219-.218.355-.313.136-.095.28-.175.43-.238a.997.997 0 0 1 .374-.096c.136 0 .28.032.43.096.15.063.302.136.456.218.173.09.348.172.525.245.177.073.361.109.552.109.146 0 .23-.05.252-.15.023-.1.034-.213.034-.34 0-.319-.054-.62-.163-.907a4.677 4.677 0 0 0-.423-.838 6.418 6.418 0 0 0-.6-.797 88.61 88.61 0 0 0-.681-.77 34.787 34.787 0 0 1-.689-.764 6.702 6.702 0 0 1-.593-.783 4.254 4.254 0 0 1-.415-.825 2.565 2.565 0 0 1-.157-.9c0-.39.086-.742.259-1.056.173-.313.397-.583.675-.81.277-.228.59-.402.94-.525s.702-.184 1.057-.184c.118 0 .3.025.545.075.245.05.486.12.723.211.236.09.445.2.627.327.181.127.272.268.272.423zm1.036 8.519c0-.091.032-.162.096-.212a.609.609 0 0 1 .238-.109c.096-.022.191-.034.287-.034h.252c.09 0 .197.002.32.007s.239.023.348.055a.72.72 0 0 1 .28.15.353.353 0 0 1 .115.279 121.909 121.909 0 0 0-.034 1.247c-.005.14-.011.216-.02.225a.394.394 0 0 1-.28.17c-.114.014-.22.02-.32.02a3.53 3.53 0 0 1-.627-.04.483.483 0 0 1-.3-.164.644.644 0 0 1-.116-.34 10.206 10.206 0 0 0-.075-.573 3.01 3.01 0 0 0-.102-.327 1.001 1.001 0 0 1-.062-.354zm5.93 1.13a.444.444 0 0 1-.238.41.73.73 0 0 1-.219.075 1.35 1.35 0 0 1-.224.02 2.33 2.33 0 0 1-.736-.136 1.648 1.648 0 0 1-.348-.17.701.701 0 0 1-.239-.253c-.054-.09-.102-.261-.143-.51-.04-.25-.075-.541-.102-.873-.027-.332-.05-.686-.068-1.063-.018-.377-.034-.738-.048-1.084a40.854 40.854 0 0 1-.034-1.553c0-.636.011-1.252.034-1.847.023-.595.048-1.206.075-1.833a.694.694 0 0 0-.136.014.694.694 0 0 1-.137.013 4.62 4.62 0 0 1-.736.055.966.966 0 0 1-.409-.082c-.118-.055-.177-.177-.177-.368 0-.227.05-.409.15-.545.1-.136.227-.243.382-.32.154-.078.322-.132.504-.164a7.86 7.86 0 0 1 .586-.082.142.142 0 0 1 .055-.007c.009-.109.018-.243.027-.402.01-.159.018-.333.027-.524.01-.3.023-.62.041-.961.018-.34.037-.668.055-.981.018-.314.04-.59.068-.832.027-.24.054-.41.082-.51.045-.119.097-.214.156-.287.06-.073.17-.109.334-.109.364 0 .646.118.846.354.2.237.3.527.3.873 0 .4-.012.8-.035 1.199a90.4 90.4 0 0 0-.06 1.213l-.042.695c.227-.027.455-.068.682-.123.218-.045.438-.086.66-.122.224-.037.44-.055.648-.055.182 0 .323.048.423.143.1.096.15.234.15.416 0 .2-.036.395-.109.586a.816.816 0 0 1-.382.436h.014a1.757 1.757 0 0 1-.327.075c-.182.032-.389.061-.62.089l-.682.081a14.24 14.24 0 0 1-.498.055h-.013a86.809 86.809 0 0 0-.055 3.012c0 .7.02 1.442.061 2.228.041.786.112 1.533.212 2.242l.109.613c.036.155.068.307.095.457.028.15.041.297.041.443zm8.22-.136a.299.299 0 0 1-.116.253.763.763 0 0 1-.265.129c-.1.027-.205.045-.314.055a3.296 3.296 0 0 1-.627 0 1.118 1.118 0 0 1-.307-.069.86.86 0 0 1-.266-.163 1.446 1.446 0 0 1-.245-.3 11.095 11.095 0 0 1-.43-.872l-.388-.886a25.491 25.491 0 0 0-.157-.395c-.04-.1-.097-.227-.17-.382a61.649 61.649 0 0 1-1.24 2.985 4.377 4.377 0 0 1-.212.375c-.077.122-.211.184-.402.184-.1 0-.22-.03-.361-.089a2.046 2.046 0 0 1-.41-.232 1.766 1.766 0 0 1-.34-.32.564.564 0 0 1-.143-.354c0-.091.018-.184.054-.28a3.06 3.06 0 0 1 .123-.28h-.014c.346-.744.67-1.478.975-2.2.305-.722.607-1.452.907-2.188a15.66 15.66 0 0 1-.266-.667l-.375-.995a160.38 160.38 0 0 1-.423-1.145 34.28 34.28 0 0 1-.674-2.051c-.078-.268-.116-.457-.116-.566 0-.181.056-.297.17-.347a.956.956 0 0 1 .389-.075c.29 0 .543.059.756.177.214.118.38.318.498.6l.143.374c.05.132.093.262.13.389l.122.34c.11.291.207.555.293.791s.193.495.32.777c.228-.582.439-1.184.634-1.806a11.93 11.93 0 0 0 .43-1.874l.04-.368c0-.127.019-.263.055-.409a.832.832 0 0 1 .157-.286c.06-.064.166-.095.32-.095.146 0 .287.022.423.068.136.045.259.111.368.197.109.087.198.191.266.314a.87.87 0 0 1 .102.43c0 .254-.03.551-.089.892-.059.34-.138.7-.238 1.077a31.426 31.426 0 0 1-.716 2.33 62.49 62.49 0 0 1-.381 1.063l-.32.865.83 1.759.512 1.076c.177.373.338.716.484 1.03.145.313.266.578.361.796.096.219.143.341.143.368zm3.558.137a.444.444 0 0 1-.238.409.73.73 0 0 1-.219.075 1.35 1.35 0 0 1-.224.02 2.33 2.33 0 0 1-.736-.136 1.648 1.648 0 0 1-.348-.17.701.701 0 0 1-.239-.253c-.054-.09-.102-.261-.143-.51-.04-.25-.075-.541-.102-.873-.027-.332-.05-.686-.068-1.063-.018-.377-.034-.738-.048-1.084a40.86 40.86 0 0 1-.034-1.553c0-.636.011-1.252.034-1.847.023-.595.048-1.206.075-1.833a.694.694 0 0 0-.136.014.694.694 0 0 1-.137.013 4.62 4.62 0 0 1-.736.055.966.966 0 0 1-.409-.082c-.118-.055-.177-.177-.177-.368 0-.227.05-.409.15-.545.1-.136.227-.243.382-.32.154-.078.322-.132.504-.164a7.86 7.86 0 0 1 .586-.082.142.142 0 0 1 .055-.007c.009-.109.018-.243.027-.402.01-.159.018-.333.027-.524.01-.3.023-.62.041-.961.018-.34.037-.668.055-.981.018-.314.04-.59.068-.832.027-.24.054-.41.082-.51.045-.119.097-.214.156-.287.06-.073.17-.109.334-.109.364 0 .646.118.846.354.2.237.3.527.3.873 0 .4-.012.8-.035 1.199a90.4 90.4 0 0 0-.06 1.213l-.042.695c.227-.027.455-.068.682-.123.218-.045.438-.086.66-.122.224-.037.44-.055.648-.055.182 0 .323.048.423.143.1.096.15.234.15.416 0 .2-.036.395-.11.586a.816.816 0 0 1-.38.436h.013a1.757 1.757 0 0 1-.327.075c-.182.032-.389.061-.62.089l-.682.081a14.24 14.24 0 0 1-.498.055h-.013a86.809 86.809 0 0 0-.055 3.012c0 .7.02 1.442.061 2.228.041.786.112 1.533.212 2.242l.109.613c.036.155.068.307.095.457.028.15.041.297.041.443z" fill="#FF001F"/><path d="M314.191 151.454a.158.158 0 0 1-.048.122.541.541 0 0 1-.262.132.59.59 0 0 1-.255.001 3.03 3.03 0 0 1-.13-.03 5.85 5.85 0 0 0-.123-.032.538.538 0 0 0-.456.108.435.435 0 0 0-.112.135.354.354 0 0 0-.041.177.75.75 0 0 0 .063.287c.041.094.095.19.16.285.067.096.143.192.23.29.085.097.176.196.271.295.116.127.233.257.35.388.118.131.224.269.319.413.094.144.172.296.234.456.061.16.094.33.097.508.002.153-.02.291-.066.413a.88.88 0 0 1-.514.515 1.13 1.13 0 0 1-.4.077c-.04 0-.1-.006-.18-.021a3.145 3.145 0 0 1-.274-.065 9.062 9.062 0 0 1-.316-.095 2.58 2.58 0 0 1-.295-.113 1.329 1.329 0 0 1-.22-.123c-.057-.042-.086-.08-.087-.117a.24.24 0 0 1 .062-.15 1 1 0 0 1 .333-.251.422.422 0 0 1 .16-.045.46.46 0 0 1 .186.04c.066.026.132.058.199.093.075.039.15.074.228.105a.604.604 0 0 0 .238.044c.063 0 .099-.024.108-.068a.708.708 0 0 0 .012-.152 1.155 1.155 0 0 0-.078-.402 2.107 2.107 0 0 0-.188-.37 2.848 2.848 0 0 0-.265-.35 51.573 51.573 0 0 0-.601-.67 2.974 2.974 0 0 1-.262-.345 1.917 1.917 0 0 1-.185-.363 1.174 1.174 0 0 1-.075-.399.982.982 0 0 1 .104-.471 1.22 1.22 0 0 1 .284-.366c.117-.103.251-.183.4-.24a1.3 1.3 0 0 1 .454-.09 1.902 1.902 0 0 1 .548.118c.103.038.193.085.273.14.079.055.12.117.12.186zm3.115 1.904c.007.351-.016.702-.066 1.052a2.96 2.96 0 0 1-.332.997 2.21 2.21 0 0 1-.183.273 1.736 1.736 0 0 1-.228.24c-.083.073-.174.13-.273.175a.794.794 0 0 1-.313.07.804.804 0 0 1-.45-.117 1.167 1.167 0 0 1-.335-.322 2.001 2.001 0 0 1-.237-.456 3.483 3.483 0 0 1-.15-.525 5.654 5.654 0 0 1-.099-1.45 5.608 5.608 0 0 1 .16-1.076c.046-.178.107-.346.182-.503.076-.157.167-.298.275-.423.107-.125.233-.225.376-.3v.006a.775.775 0 0 1 .374-.11.285.285 0 0 1 .183.048c.044.034.064.091.062.172a.83.83 0 0 1 .528.312c.136.171.242.372.318.6.077.23.13.465.16.707.029.242.045.452.048.63zm-1.352-1.492a.278.278 0 0 1-.19-.076 1.846 1.846 0 0 0-.18.407 3.391 3.391 0 0 0-.112.468 4.35 4.35 0 0 0-.054.483 6.294 6.294 0 0 0-.01.455c.003.117.011.267.026.451s.04.368.077.553c.037.186.087.358.15.519.064.16.145.278.244.353a.82.82 0 0 0 .296-.353 2.5 2.5 0 0 0 .182-.528c.044-.19.073-.383.087-.577.014-.194.02-.36.018-.498a5.67 5.67 0 0 0-.025-.393 5.564 5.564 0 0 0-.067-.493 2.98 2.98 0 0 0-.123-.468.816.816 0 0 0-.19-.324.4.4 0 0 1-.13.02zm2.786 3.921c.002.093-.024.154-.076.184a.4.4 0 0 1-.19.045 1.27 1.27 0 0 1-.197-.011.62.62 0 0 1-.183-.055.412.412 0 0 1-.237-.299 3.81 3.81 0 0 1-.106-.71c-.012-.232-.02-.471-.024-.718l-.013-.745c-.006-.34.001-.692.022-1.058a61.741 61.741 0 0 1 .075-1.102.17.17 0 0 0 .005-.036c.003-.045.008-.093.015-.146a.602.602 0 0 1 .036-.143.275.275 0 0 1 .074-.108.197.197 0 0 1 .132-.044.421.421 0 0 1 .18.036.469.469 0 0 1 .257.253.47.47 0 0 1 .04.187c.002.081 0 .165-.004.252a8.684 8.684 0 0 1-.028.38l-.007.139c.046-.086.098-.173.157-.26.06-.088.125-.166.199-.234a1.04 1.04 0 0 1 .24-.168.647.647 0 0 1 .284-.069.548.548 0 0 1 .253.047.44.44 0 0 1 .161.137c.04.058.069.127.086.208.017.08.026.165.028.254a4.401 4.401 0 0 1-.006.321 4.343 4.343 0 0 0 .007.615l.026.3c.037-.134.082-.287.136-.457a6.75 6.75 0 0 1 .434-1.053 2.98 2.98 0 0 1 .29-.463c.106-.135.22-.245.344-.33a.702.702 0 0 1 .392-.132c.215-.003.367.059.458.186.09.128.137.293.14.495a2.872 2.872 0 0 1-.017.358 14.356 14.356 0 0 0-.035 1.346l.002.115c.005.283.021.55.05.8.027.25.079.513.154.791l.05.163c.016.056.036.118.059.187a3.145 3.145 0 0 1 .103.38.7.7 0 0 1 .02.133c.002.085-.027.142-.085.17a.415.415 0 0 1-.181.047l-.135-.001a.92.92 0 0 1-.15-.016.677.677 0 0 1-.142-.043.301.301 0 0 1-.11-.077v.006a.32.32 0 0 1-.078-.131 1.14 1.14 0 0 1-.038-.157l-.013-.055a17.327 17.327 0 0 1-.148-.585 6.92 6.92 0 0 1-.16-1.058 12.38 12.38 0 0 1-.025-.642 7.69 7.69 0 0 1 .015-.63c.014-.215.029-.426.045-.632a.95.95 0 0 1 .01-.14 4.75 4.75 0 0 0-.377.792c-.107.287-.202.58-.284.88-.083.301-.154.603-.214.905-.059.302-.112.589-.158.86 0 .004.01.027.028.07.018.041.037.09.055.144l.053.157a.44.44 0 0 1 .025.1c.002.092-.027.15-.085.17a.555.555 0 0 1-.181.034c-.047 0-.098 0-.153-.004a.735.735 0 0 1-.31-.088.294.294 0 0 1-.11-.11 1.208 1.208 0 0 1-.088-.287 16.796 16.796 0 0 1-.22-1.187l-.1-.665a26.63 26.63 0 0 1-.074-.55 3.958 3.958 0 0 1-.029-.321l-.001-.091c-.12.28-.22.582-.296.902a8.69 8.69 0 0 0-.171.943l-.022.11a.877.877 0 0 0-.02.181c0 .045.007.1.018.164.01.064.024.135.041.211.022.105.04.213.056.324.016.11.024.22.026.33zm6.413-1.19a.84.84 0 0 1-.09.377c-.062.13-.143.25-.243.359a1.33 1.33 0 0 1-.345.27.835.835 0 0 1-.388.11.956.956 0 0 1-.477-.104 1.137 1.137 0 0 1-.352-.297 1.667 1.667 0 0 1-.245-.43 3.318 3.318 0 0 1-.153-.497 4.24 4.24 0 0 1-.082-.514 5.95 5.95 0 0 1-.029-.469 5.32 5.32 0 0 1 .075-.947c.03-.178.073-.355.128-.53.056-.174.127-.331.212-.47.086-.139.19-.252.311-.339a.732.732 0 0 1 .424-.134.713.713 0 0 1 .338.072c.101.051.187.12.256.205.07.086.125.185.164.297.04.113.06.23.062.35.003.158-.03.33-.097.518a2.899 2.899 0 0 1-.63 1.02c-.137.142-.273.25-.409.325.01.073.027.179.053.318s.06.276.104.413c.043.137.094.255.153.355.058.1.127.15.205.148a.15.15 0 0 0 .102-.038.356.356 0 0 0 .078-.099.826.826 0 0 0 .059-.134l.047-.14.034-.086a.297.297 0 0 0 .014-.024l.009-.018c.026-.053.052-.102.077-.147a.353.353 0 0 1 .106-.117h-.006a.083.083 0 0 1 .05-.028.293.293 0 0 1 .191.036.65.65 0 0 1 .25.24c.03.05.044.1.044.149zm-1.208-2.652c0-.04-.004-.083-.008-.128a.33.33 0 0 0-.032-.114c-.053.07-.1.152-.14.248a2.209 2.209 0 0 0-.097.298 3.405 3.405 0 0 0-.095.605c.1-.127.187-.27.263-.432.075-.16.112-.32.109-.477zm5.553 2.327a.882.882 0 0 1-.037.261 2.22 2.22 0 0 1-.09.257 2.354 2.354 0 0 1-.163.345c-.065.112-.14.213-.224.3-.085.09-.181.16-.29.215a.845.845 0 0 1-.368.085.953.953 0 0 1-.608-.177 1.349 1.349 0 0 1-.39-.466 2.206 2.206 0 0 1-.207-.62 3.97 3.97 0 0 1-.067-.642c-.003-.15 0-.326.008-.53a6.56 6.56 0 0 1 .057-.635 4.69 4.69 0 0 1 .135-.65c.06-.216.14-.409.24-.578.098-.17.22-.308.365-.415a.879.879 0 0 1 .71-.146c.083.014.165.036.245.065a.73.73 0 0 1 .214.118c.061.05.093.106.094.17a.154.154 0 0 1-.077.142.564.564 0 0 1-.187.073 1.347 1.347 0 0 1-.222.028 7.302 7.302 0 0 1-.185.006l-.106.002a1.101 1.101 0 0 0-.262.45 3.8 3.8 0 0 0-.153.63 7.634 7.634 0 0 0-.085 1.19c.003.193.021.384.054.571.033.188.095.363.188.527.02.036.05.077.088.123.037.046.08.068.127.068.035-.001.07-.032.107-.093.036-.061.069-.133.099-.214.03-.081.054-.16.072-.238a5.17 5.17 0 0 0 .038-.17.232.232 0 0 0 .005-.055l-.001-.06.001-.106a.276.276 0 0 1 .12-.224.35.35 0 0 1 .166-.039.797.797 0 0 1 .188.021.66.66 0 0 1 .19.075.49.49 0 0 1 .149.137c.04.056.06.122.062.2zm2.797-1.176c.006.351-.016.702-.067 1.053a2.96 2.96 0 0 1-.331.997 2.21 2.21 0 0 1-.184.273 1.736 1.736 0 0 1-.227.24 1.09 1.09 0 0 1-.273.174.794.794 0 0 1-.313.07.804.804 0 0 1-.451-.117 1.167 1.167 0 0 1-.334-.321 2.001 2.001 0 0 1-.237-.457 3.483 3.483 0 0 1-.15-.525 5.654 5.654 0 0 1-.099-1.45c.009-.174.026-.352.052-.534.026-.182.062-.363.108-.541a2.76 2.76 0 0 1 .182-.504c.076-.156.167-.297.275-.423.107-.125.232-.225.376-.3v.006a.775.775 0 0 1 .374-.11.285.285 0 0 1 .183.049c.043.033.064.09.061.171a.83.83 0 0 1 .528.312c.136.172.243.372.319.601.076.229.13.464.159.706.03.242.046.452.05.63zm-1.353-1.492a.278.278 0 0 1-.189-.075 1.846 1.846 0 0 0-.18.406 3.391 3.391 0 0 0-.113.469c-.026.16-.044.32-.053.482a6.295 6.295 0 0 0-.01.455 6.603 6.603 0 0 0 .103 1.005c.037.185.087.358.15.518a.8.8 0 0 0 .244.354.82.82 0 0 0 .296-.354 2.5 2.5 0 0 0 .182-.528 3.88 3.88 0 0 0 .086-.577c.015-.194.02-.36.018-.497a5.67 5.67 0 0 0-.024-.394 5.565 5.565 0 0 0-.068-.493 2.98 2.98 0 0 0-.122-.467.816.816 0 0 0-.19-.324.4.4 0 0 1-.13.02zm4.329 1.44a6.65 6.65 0 0 1-.067 1.053 2.96 2.96 0 0 1-.332.997 2.21 2.21 0 0 1-.183.273 1.736 1.736 0 0 1-.228.24 1.09 1.09 0 0 1-.273.174.794.794 0 0 1-.313.07.804.804 0 0 1-.45-.117 1.167 1.167 0 0 1-.335-.321 2.001 2.001 0 0 1-.237-.457 3.483 3.483 0 0 1-.15-.525 5.654 5.654 0 0 1-.099-1.45 5.64 5.64 0 0 1 .161-1.075 2.62 2.62 0 0 1 .182-.504 1.97 1.97 0 0 1 .274-.423c.107-.125.233-.225.376-.3v.006a.775.775 0 0 1 .374-.11.285.285 0 0 1 .183.049c.044.033.064.09.062.171a.83.83 0 0 1 .528.312c.136.172.242.372.318.601.077.229.13.465.16.706.03.242.045.452.049.63zm-1.353-1.492a.278.278 0 0 1-.19-.075 1.846 1.846 0 0 0-.18.406 3.391 3.391 0 0 0-.112.469c-.027.16-.045.32-.054.482a6.295 6.295 0 0 0-.01.455c.003.117.011.268.026.451.015.184.041.368.077.554.037.185.087.358.15.518.064.16.145.279.244.354a.82.82 0 0 0 .296-.354 2.5 2.5 0 0 0 .182-.527c.044-.191.073-.384.087-.578.014-.194.02-.36.018-.497a5.67 5.67 0 0 0-.025-.394 5.564 5.564 0 0 0-.067-.493 2.98 2.98 0 0 0-.123-.467.816.816 0 0 0-.19-.324.4.4 0 0 1-.13.02zm3.312 4.119a.225.225 0 0 1-.038.14.314.314 0 0 1-.102.09.49.49 0 0 1-.134.05.66.66 0 0 1-.132.018.559.559 0 0 1-.36-.115 1.103 1.103 0 0 1-.27-.308 1.902 1.902 0 0 1-.189-.433 5.581 5.581 0 0 1-.204-.96 12.788 12.788 0 0 1-.042-.39 19.738 19.738 0 0 1-.094-1.144c-.02-.388-.034-.771-.04-1.151a44.689 44.689 0 0 1 .055-3.202l.007-.294a9.084 9.084 0 0 1 .033-.63.74.74 0 0 1 .035-.192v.006a.293.293 0 0 1 .062-.129c.027-.028.074-.043.14-.044a.49.49 0 0 1 .36.139.49.49 0 0 1 .154.36 1.458 1.458 0 0 1-.009.183 1.305 1.305 0 0 0-.009.152 12.38 12.38 0 0 0-.018.47l-.012.47a37.24 37.24 0 0 0-.007 2.673 31.745 31.745 0 0 0 .103 1.671c.027.303.06.591.1.865.04.274.087.522.14.743.052.222.113.392.182.512.035.016.07.04.104.074a.632.632 0 0 1 .09.114.832.832 0 0 1 .067.132c.018.046.028.09.028.13zm4.21-1.607a.882.882 0 0 1-.036.261c-.026.09-.056.175-.09.256a2.318 2.318 0 0 1-.164.346 1.539 1.539 0 0 1-.223.3c-.085.089-.181.16-.29.215a.845.845 0 0 1-.368.085.953.953 0 0 1-.608-.177 1.349 1.349 0 0 1-.39-.466 2.206 2.206 0 0 1-.207-.621 3.97 3.97 0 0 1-.067-.642c-.003-.149 0-.326.008-.53a6.86 6.86 0 0 1 .056-.634c.03-.22.075-.436.136-.651.06-.216.14-.408.24-.577.098-.17.22-.308.365-.416a.879.879 0 0 1 .71-.146c.083.015.165.037.245.066a.73.73 0 0 1 .214.117c.061.05.093.107.094.171a.154.154 0 0 1-.077.141.564.564 0 0 1-.187.073 1.347 1.347 0 0 1-.222.028 7.302 7.302 0 0 1-.185.006l-.106.002a1.101 1.101 0 0 0-.262.45 3.8 3.8 0 0 0-.153.63 7.634 7.634 0 0 0-.085 1.19c.003.194.021.385.054.572.032.187.095.363.188.527.02.036.05.077.087.123.038.046.08.068.128.067.035 0 .07-.031.107-.093.036-.06.069-.132.099-.213.03-.082.054-.161.072-.238l.038-.17a.232.232 0 0 0 .005-.055l-.001-.06v-.107a.276.276 0 0 1 .12-.223.35.35 0 0 1 .167-.04.797.797 0 0 1 .188.021c.067.015.13.04.19.076a.49.49 0 0 1 .148.137c.04.056.061.122.063.199zm2.798-1.177a6.52 6.52 0 0 1-.067 1.053 2.96 2.96 0 0 1-.332.997 2.21 2.21 0 0 1-.183.273 1.736 1.736 0 0 1-.227.24c-.083.073-.174.13-.273.175a.794.794 0 0 1-.313.07.804.804 0 0 1-.451-.117 1.167 1.167 0 0 1-.335-.322 2.001 2.001 0 0 1-.237-.456 3.483 3.483 0 0 1-.15-.525 5.654 5.654 0 0 1-.099-1.45c.01-.174.027-.352.053-.534.026-.183.062-.363.108-.542.046-.178.106-.346.182-.503.075-.157.167-.298.274-.423.108-.125.233-.225.377-.3v.005a.775.775 0 0 1 .374-.11.285.285 0 0 1 .182.05c.044.033.065.09.062.17a.83.83 0 0 1 .528.313c.136.171.242.372.319.6.076.23.13.465.159.707.03.242.046.452.049.63zm-1.353-1.491a.278.278 0 0 1-.189-.076 1.846 1.846 0 0 0-.18.406 3.391 3.391 0 0 0-.113.47 4.44 4.44 0 0 0-.053.482 6.295 6.295 0 0 0-.01.455 6.58 6.58 0 0 0 .103 1.004c.036.185.086.358.15.519.063.16.145.278.244.353a.82.82 0 0 0 .296-.353 2.5 2.5 0 0 0 .181-.528c.044-.19.073-.383.087-.577a5.9 5.9 0 0 0 .018-.498 5.67 5.67 0 0 0-.025-.393 5.564 5.564 0 0 0-.067-.493 2.98 2.98 0 0 0-.122-.468.816.816 0 0 0-.191-.324.4.4 0 0 1-.129.02zm2.787 3.921c.001.093-.024.154-.076.184a.4.4 0 0 1-.19.045 1.27 1.27 0 0 1-.197-.011.62.62 0 0 1-.183-.055.412.412 0 0 1-.237-.299 3.81 3.81 0 0 1-.107-.71c-.011-.232-.02-.472-.024-.718l-.013-.745c-.006-.34.002-.692.023-1.058a61.741 61.741 0 0 1 .074-1.102.17.17 0 0 0 .006-.036c.003-.045.008-.093.015-.146a.602.602 0 0 1 .035-.143.275.275 0 0 1 .075-.108.197.197 0 0 1 .131-.044.421.421 0 0 1 .18.036.469.469 0 0 1 .257.253c.026.06.04.123.041.187a4.848 4.848 0 0 1-.015.461.834.834 0 0 1-.01.134c.053-.114.114-.234.182-.358.068-.124.147-.239.237-.344.09-.104.19-.19.301-.256a.73.73 0 0 1 .371-.104.64.64 0 0 1 .283.05.45.45 0 0 1 .182.151.631.631 0 0 1 .098.232c.019.088.03.183.03.284.003.137.002.276-.004.415l-.016.416c-.009.142-.016.281-.022.419a7.352 7.352 0 0 0-.004.418 12.062 12.062 0 0 0 .065 1.038c.018.164.039.31.06.442.022.13.044.232.064.305.017.06.035.13.054.208l.057.241c.019.083.035.162.048.239.013.077.02.145.021.206.002.089-.031.146-.1.171a.604.604 0 0 1-.201.04 1.916 1.916 0 0 1-.226-.011.62.62 0 0 1-.228-.066.423.423 0 0 1-.165-.252 2.102 2.102 0 0 1-.056-.32l-.02-.163a131.22 131.22 0 0 0-.054-.381 16.979 16.979 0 0 1-.12-1.11 10.397 10.397 0 0 1-.027-.597 5.96 5.96 0 0 1 .012-.503 51.012 51.012 0 0 1 .049-.698l.014-.207a4.204 4.204 0 0 0-.227.46 9.09 9.09 0 0 0-.213.545c-.067.19-.128.373-.181.552a6.303 6.303 0 0 0-.124.469l-.033.134a2.3 2.3 0 0 0-.047.195.88.88 0 0 0-.017.182 4.92 4.92 0 0 0 .05.52 9.684 9.684 0 0 0 .06.387 3.53 3.53 0 0 1 .05.348c.007.066.01.126.012.178zm3.525-.182a.203.203 0 0 1-.028.112.204.204 0 0 1-.072.071.308.308 0 0 1-.093.035.54.54 0 0 1-.097.01.978.978 0 0 1-.318-.055.7.7 0 0 1-.15-.072.308.308 0 0 1-.105-.11.735.735 0 0 1-.066-.227c-.02-.11-.037-.24-.05-.387a14.486 14.486 0 0 1-.038-.472l-.03-.481a18.765 18.765 0 0 1-.026-1.512l.018-.816a.29.29 0 0 0-.058.007.29.29 0 0 1-.059.007 1.928 1.928 0 0 1-.316.03.405.405 0 0 1-.177-.033c-.051-.023-.078-.078-.08-.162a.41.41 0 0 1 .061-.244.454.454 0 0 1 .162-.145.768.768 0 0 1 .216-.077 3.282 3.282 0 0 1 .275-.044l.009-.179a25.552 25.552 0 0 0 .017-.66l.016-.438a7.07 7.07 0 0 1 .023-.37c.01-.107.02-.183.031-.228a.472.472 0 0 1 .066-.128c.025-.033.072-.05.143-.051a.444.444 0 0 1 .366.151.592.592 0 0 1 .136.386c.003.177.001.355-.005.533a31.14 31.14 0 0 0-.017.54l-.013.31c.098-.014.196-.034.293-.06a6.46 6.46 0 0 1 .284-.06c.095-.018.188-.027.278-.029a.248.248 0 0 1 .183.06c.044.042.066.103.068.184a.747.747 0 0 1-.043.262.36.36 0 0 1-.16.196h.005a.736.736 0 0 1-.14.036c-.078.016-.167.03-.266.044l-.293.042a5.943 5.943 0 0 1-.214.028h-.006a39.868 39.868 0 0 0 0 1.34c.006.31.02.64.044.99.024.349.06.68.108.995l.052.272c.017.068.032.136.045.202.012.066.02.132.02.197zm3.158-1.013a.84.84 0 0 1-.09.377c-.063.13-.144.25-.244.359a1.33 1.33 0 0 1-.344.27.835.835 0 0 1-.389.11.956.956 0 0 1-.477-.104 1.137 1.137 0 0 1-.352-.297 1.667 1.667 0 0 1-.245-.43 3.318 3.318 0 0 1-.152-.497 4.24 4.24 0 0 1-.083-.514 5.95 5.95 0 0 1-.028-.469 5.32 5.32 0 0 1 .074-.947c.03-.178.073-.355.129-.53.055-.174.126-.33.212-.47.085-.139.19-.252.31-.339a.732.732 0 0 1 .424-.134.713.713 0 0 1 .339.073c.1.05.186.119.256.204.07.086.124.185.164.297.039.113.06.23.061.351.003.158-.029.33-.096.517a2.899 2.899 0 0 1-.631 1.02c-.136.142-.273.25-.408.325.009.073.026.179.052.318s.06.277.104.413c.044.137.095.255.153.355.059.1.127.15.205.148.04 0 .074-.013.102-.038a.356.356 0 0 0 .078-.098.826.826 0 0 0 .06-.135l.047-.14.034-.085a.298.298 0 0 0 .014-.025l.008-.018c.027-.053.052-.102.077-.147a.353.353 0 0 1 .106-.117h-.005a.083.083 0 0 1 .049-.028.293.293 0 0 1 .191.036.65.65 0 0 1 .251.241c.028.05.043.1.044.148zm-1.209-2.652c0-.04-.003-.083-.008-.127a.33.33 0 0 0-.031-.115c-.054.07-.1.152-.14.248-.04.096-.072.195-.097.299a3.405 3.405 0 0 0-.095.604c.1-.127.187-.27.262-.432.076-.16.112-.32.11-.477zm2.466 3.709c.002.093-.024.154-.076.183a.4.4 0 0 1-.19.046 1.27 1.27 0 0 1-.197-.012.62.62 0 0 1-.183-.054.412.412 0 0 1-.237-.299 3.81 3.81 0 0 1-.106-.71c-.012-.233-.02-.472-.025-.719l-.013-.745c-.005-.34.002-.692.023-1.058a61.751 61.751 0 0 1 .075-1.102.17.17 0 0 0 .005-.036c.003-.045.008-.093.015-.146a.602.602 0 0 1 .036-.143.275.275 0 0 1 .074-.107.197.197 0 0 1 .131-.045.421.421 0 0 1 .18.036.469.469 0 0 1 .257.253c.027.06.04.123.041.188a4.848 4.848 0 0 1-.015.46.834.834 0 0 1-.01.134c.053-.114.114-.233.182-.358.068-.124.148-.239.238-.343.09-.105.19-.19.3-.257a.73.73 0 0 1 .372-.103.64.64 0 0 1 .282.05.45.45 0 0 1 .182.15.631.631 0 0 1 .098.232c.02.089.03.184.031.285.003.137.001.275-.004.415l-.016.415c-.01.142-.017.281-.022.419a7.352 7.352 0 0 0-.005.418 12.062 12.062 0 0 0 .065 1.039c.019.163.039.31.06.441.023.131.044.233.065.305l.053.208c.02.079.038.16.057.242.02.082.035.162.049.238.013.077.02.145.02.206.002.089-.031.146-.099.172a.604.604 0 0 1-.202.04 1.916 1.916 0 0 1-.226-.012.62.62 0 0 1-.227-.066.423.423 0 0 1-.166-.251 2.102 2.102 0 0 1-.056-.32l-.02-.164a131.22 131.22 0 0 0-.054-.38 16.979 16.979 0 0 1-.119-1.111 10.397 10.397 0 0 1-.028-.597 5.96 5.96 0 0 1 .012-.503 51.012 51.012 0 0 1 .05-.698c.002-.052.007-.121.013-.206-.076.13-.151.283-.226.458a9.09 9.09 0 0 0-.214.547 12.57 12.57 0 0 0-.181.551 6.302 6.302 0 0 0-.124.47l-.033.133c-.018.065-.034.13-.046.195a.88.88 0 0 0-.018.182 4.92 4.92 0 0 0 .05.52 9.687 9.687 0 0 0 .06.387 3.532 3.532 0 0 1 .05.348c.007.067.011.126.012.179zm3.525-.183a.203.203 0 0 1-.027.113.204.204 0 0 1-.073.07.308.308 0 0 1-.093.036.54.54 0 0 1-.097.01.978.978 0 0 1-.318-.055.7.7 0 0 1-.15-.073.308.308 0 0 1-.105-.11.735.735 0 0 1-.066-.226 4.785 4.785 0 0 1-.05-.387 14.486 14.486 0 0 1-.038-.473 57.28 57.28 0 0 1-.029-.48 18.759 18.759 0 0 1-.026-1.513c.005-.265.01-.536.018-.815a.29.29 0 0 0-.059.007.29.29 0 0 1-.059.007 1.928 1.928 0 0 1-.316.03.405.405 0 0 1-.177-.034c-.051-.023-.077-.077-.079-.162a.41.41 0 0 1 .06-.244.454.454 0 0 1 .162-.145.768.768 0 0 1 .216-.076 3.282 3.282 0 0 1 .275-.045l.009-.178a25.514 25.514 0 0 0 .018-.662l.016-.436c.005-.14.013-.263.022-.37.01-.108.02-.184.032-.228a.472.472 0 0 1 .065-.129c.025-.032.073-.05.143-.05a.444.444 0 0 1 .367.15.592.592 0 0 1 .135.386c.004.178.002.356-.005.534a45.12 45.12 0 0 0-.017.54l-.012.309c.097-.014.195-.034.292-.06a6.46 6.46 0 0 1 .284-.06c.096-.017.188-.027.278-.029a.248.248 0 0 1 .183.06c.044.043.067.104.068.185a.747.747 0 0 1-.042.261.36.36 0 0 1-.161.197h.006a.736.736 0 0 1-.14.035c-.079.016-.167.03-.267.045l-.293.041a5.943 5.943 0 0 1-.213.028h-.006a39.868 39.868 0 0 0 0 1.34c.005.31.02.64.043.99.024.35.06.68.109.995l.051.272c.017.068.032.136.045.202.013.067.02.132.021.197zm-235.412 18.156a7.07 7.07 0 0 1-.052.547c-.026.199-.06.404-.103.616a6.951 6.951 0 0 1-.16.638 5.433 5.433 0 0 1-.223.61 3.422 3.422 0 0 1-.29.535 1.808 1.808 0 0 1-.36.403 1.177 1.177 0 0 1-.312.18.826.826 0 0 1-.347.058.469.469 0 0 1-.134-.028.168.168 0 0 1-.1-.105 1.248 1.248 0 0 1-.253-.065.377.377 0 0 1-.199-.184.538.538 0 0 1-.024-.104 7.606 7.606 0 0 1-.025-.187 2.067 2.067 0 0 0-.01-.052 22.285 22.285 0 0 1-.117-2.19c-.003-.729.015-1.462.054-2.2l.017-.34.032-.55.04-.648.042-.635c.014-.197.03-.367.044-.51.016-.143.028-.234.038-.274a.413.413 0 0 1 .072-.136c.03-.035.077-.05.144-.047.184.01.313.076.386.2a.769.769 0 0 1 .098.444l-.109 2.067a32.43 32.43 0 0 0-.043 1.39 2.13 2.13 0 0 1 .19-.311c.074-.101.156-.192.246-.272.091-.08.19-.144.299-.191a.781.781 0 0 1 .356-.06c.188.01.337.06.448.15a.84.84 0 0 1 .247.338c.054.135.087.283.1.445.013.163.016.319.008.468zm-.802-.181c.004-.081.006-.17.005-.267a.558.558 0 0 0-.06-.258.566.566 0 0 0-.096.086c-.027.03-.055.066-.085.105l-.012.017v-.006c-.12.18-.22.391-.301.634-.081.242-.15.495-.204.757a8.42 8.42 0 0 0-.127.782 11.869 11.869 0 0 0-.068.9c-.002.088.001.16.01.217.16-.126.296-.314.409-.565.113-.25.208-.523.284-.816a7.38 7.38 0 0 0 .172-.868c.038-.285.063-.525.073-.718zm2.526 3.876a.225.225 0 0 1-.048.138.314.314 0 0 1-.107.082.491.491 0 0 1-.138.041.66.66 0 0 1-.133.008.56.56 0 0 1-.351-.14 1.103 1.103 0 0 1-.248-.325 1.9 1.9 0 0 1-.159-.445 5.578 5.578 0 0 1-.137-.972 12.78 12.78 0 0 1-.015-.393 19.72 19.72 0 0 1-.013-1.147c.006-.388.02-.772.04-1.151a44.648 44.648 0 0 1 .278-3.19c.009-.085.018-.182.027-.293a9.077 9.077 0 0 1 .077-.627.74.74 0 0 1 .049-.189v.006a.293.293 0 0 1 .07-.123c.03-.027.077-.039.143-.035a.49.49 0 0 1 .35.164.49.49 0 0 1 .128.37 1.458 1.458 0 0 1-.02.181 1.304 1.304 0 0 0-.02.151c-.02.157-.038.313-.052.468l-.045.468a37.199 37.199 0 0 0-.192 2.666 31.717 31.717 0 0 0-.015 1.674c.006.304.02.594.04.87.021.276.05.527.087.751.038.225.086.4.146.524a.346.346 0 0 1 .1.08.632.632 0 0 1 .081.12.97.97 0 0 1 .058.137.369.369 0 0 1 .02.131zm2.665-.115c-.004.081-.026.135-.067.164a.263.263 0 0 1-.167.036c-.184-.01-.313-.067-.388-.172a1.008 1.008 0 0 1-.158-.408 25.645 25.645 0 0 1-.026-.175 2.905 2.905 0 0 1-.02-.174.584.584 0 0 0-.018-.11.602.602 0 0 1-.017-.116 3.616 3.616 0 0 1-.193.357c-.075.123-.16.236-.256.338-.095.103-.2.185-.316.248a.687.687 0 0 1-.372.084.57.57 0 0 1-.346-.125.737.737 0 0 1-.206-.278 1.266 1.266 0 0 1-.093-.36 2.252 2.252 0 0 1-.013-.37c.014-.275.056-.571.126-.889a8.58 8.58 0 0 1 .648-1.86c.14-.29.29-.542.45-.756v.006l.039-.052c.046-.059.1-.122.16-.19a.254.254 0 0 1 .207-.095.246.246 0 0 1 .189.11c.051.07.087.142.106.215.1.026.182.055.243.089a.358.358 0 0 1 .203.278.99.99 0 0 1 .007.191l-.004.091a.805.805 0 0 1-.011.097.974.974 0 0 0-.012.114l-.006.121a.795.795 0 0 0 .012.159l.033.202.03.226c.013.118.023.252.029.402.005.15.014.3.026.45a63.083 63.083 0 0 0 .05.847l.094.903.012.104c.005.052.011.101.019.146.007.045.01.096.006.152zm-1.16-3.55l-.005-.04a2.848 2.848 0 0 1-.008-.058c-.1.193-.191.404-.272.632a7.596 7.596 0 0 0-.413 2.093l-.002.055a.205.205 0 0 0 .003.049v.006c.101-.145.193-.337.274-.578a8.961 8.961 0 0 0 .422-2.16zm6.164.462a7.07 7.07 0 0 1-.052.547c-.026.199-.06.404-.103.617a6.951 6.951 0 0 1-.16.638 5.433 5.433 0 0 1-.223.61 3.422 3.422 0 0 1-.29.534 1.808 1.808 0 0 1-.36.403 1.177 1.177 0 0 1-.312.18.826.826 0 0 1-.347.058.469.469 0 0 1-.134-.028.168.168 0 0 1-.1-.105 1.248 1.248 0 0 1-.253-.065.377.377 0 0 1-.199-.183.538.538 0 0 1-.024-.105 7.606 7.606 0 0 1-.026-.186 2.067 2.067 0 0 0-.009-.052 22.286 22.286 0 0 1-.117-2.191 39.6 39.6 0 0 1 .053-2.2l.018-.34.032-.55.04-.647.042-.635c.014-.198.029-.368.044-.51.016-.144.028-.235.038-.275a.413.413 0 0 1 .072-.136c.03-.035.077-.05.144-.047.184.01.312.076.386.2a.769.769 0 0 1 .098.444l-.109 2.067a32.414 32.414 0 0 0-.043 1.39 2.13 2.13 0 0 1 .19-.31c.074-.102.156-.193.246-.273.09-.08.19-.144.299-.19a.781.781 0 0 1 .356-.061c.188.01.337.06.448.15.11.092.193.204.247.338.054.135.087.283.1.446.013.162.016.318.008.467zm-.802-.181c.004-.08.006-.17.005-.267a.558.558 0 0 0-.06-.258.566.566 0 0 0-.096.086 2.247 2.247 0 0 0-.085.105l-.013.017v-.006c-.119.18-.219.391-.3.634-.081.242-.15.495-.205.757a8.42 8.42 0 0 0-.126.782 11.869 11.869 0 0 0-.068.901c-.002.087 0 .159.01.216.16-.125.295-.313.409-.564.113-.251.207-.523.284-.817a7.38 7.38 0 0 0 .172-.868c.038-.285.062-.525.073-.718zm2.526 3.877a.225.225 0 0 1-.048.137.314.314 0 0 1-.108.082.491.491 0 0 1-.137.042.66.66 0 0 1-.133.008.56.56 0 0 1-.351-.14 1.103 1.103 0 0 1-.248-.326 1.9 1.9 0 0 1-.159-.445 5.578 5.578 0 0 1-.137-.972 12.78 12.78 0 0 1-.015-.392 19.72 19.72 0 0 1-.013-1.148c.006-.388.02-.772.04-1.151a44.648 44.648 0 0 1 .278-3.19c.009-.084.018-.182.027-.293a9.077 9.077 0 0 1 .077-.627.74.74 0 0 1 .048-.188v.006a.293.293 0 0 1 .071-.124c.03-.027.077-.039.143-.035a.49.49 0 0 1 .35.164.49.49 0 0 1 .128.37 1.458 1.458 0 0 1-.021.182 1.304 1.304 0 0 0-.02.15c-.02.157-.037.313-.05.468l-.046.468a37.199 37.199 0 0 0-.192 2.666 31.717 31.717 0 0 0-.015 1.675c.006.303.02.593.04.87.02.276.05.526.087.75.037.225.086.4.146.524a.346.346 0 0 1 .099.081.632.632 0 0 1 .082.12.911.911 0 0 1 .058.136.369.369 0 0 1 .02.132zm2.665-.115c-.004.08-.026.135-.067.163a.263.263 0 0 1-.167.037c-.184-.01-.313-.067-.388-.172a1.008 1.008 0 0 1-.158-.41 25.645 25.645 0 0 1-.026-.174 2.905 2.905 0 0 1-.02-.174.584.584 0 0 0-.018-.11.602.602 0 0 1-.018-.116 3.616 3.616 0 0 1-.192.357 2.05 2.05 0 0 1-.256.339c-.095.102-.2.184-.316.247a.687.687 0 0 1-.372.084.57.57 0 0 1-.346-.125.737.737 0 0 1-.206-.277 1.266 1.266 0 0 1-.093-.36 2.252 2.252 0 0 1-.013-.371c.014-.275.056-.57.126-.889a8.58 8.58 0 0 1 .648-1.86c.14-.29.29-.541.45-.756v.007l.039-.053c.046-.058.099-.121.16-.189.06-.068.13-.1.207-.095.075.004.138.04.189.11.051.07.087.14.106.215.1.025.182.055.243.088a.358.358 0 0 1 .203.278c.008.06.01.123.007.192l-.004.09a.805.805 0 0 1-.011.097.974.974 0 0 0-.012.115l-.007.12a.795.795 0 0 0 .013.159l.033.202.03.226c.013.118.023.252.028.402.006.15.015.3.027.45a63.083 63.083 0 0 0 .05.847l.094.903.012.104c.005.053.011.102.019.146.007.045.01.096.006.153zm-1.16-3.551l-.005-.04a2.848 2.848 0 0 1-.008-.058c-.1.193-.191.404-.272.632a7.596 7.596 0 0 0-.413 2.093l-.002.055a.202.202 0 0 0 .003.049v.006c.101-.144.193-.337.274-.577a8.961 8.961 0 0 0 .422-2.16zm6.164.463a7.07 7.07 0 0 1-.052.546c-.026.2-.06.405-.103.617a6.951 6.951 0 0 1-.16.638 5.433 5.433 0 0 1-.223.61 3.422 3.422 0 0 1-.29.534 1.808 1.808 0 0 1-.36.403 1.177 1.177 0 0 1-.312.181.826.826 0 0 1-.347.058.469.469 0 0 1-.134-.029.168.168 0 0 1-.1-.105 1.248 1.248 0 0 1-.253-.065.377.377 0 0 1-.2-.183.538.538 0 0 1-.023-.105 7.616 7.616 0 0 1-.026-.186 2.067 2.067 0 0 0-.009-.052 22.286 22.286 0 0 1-.117-2.191c-.003-.728.015-1.462.053-2.2l.018-.34.032-.55.04-.647.042-.635c.014-.198.029-.368.044-.51.016-.143.028-.235.038-.275a.413.413 0 0 1 .072-.136c.03-.034.077-.05.144-.047.183.01.312.076.386.2a.769.769 0 0 1 .098.445l-.109 2.067a32.414 32.414 0 0 0-.043 1.39 2.13 2.13 0 0 1 .19-.312c.074-.1.156-.192.246-.272.09-.08.19-.144.299-.19a.781.781 0 0 1 .356-.06c.187.009.337.06.448.15.11.09.193.203.247.338.054.134.087.282.1.445.013.163.016.318.008.468zm-.803-.182c.005-.08.006-.17.006-.267a.558.558 0 0 0-.06-.258.566.566 0 0 0-.096.086 2.247 2.247 0 0 0-.085.105l-.013.018v-.006c-.119.18-.219.39-.3.633-.082.243-.15.495-.205.757a8.42 8.42 0 0 0-.126.783 11.869 11.869 0 0 0-.068.9c-.002.087 0 .16.01.216.16-.125.295-.313.409-.564.113-.251.207-.523.284-.817a7.38 7.38 0 0 0 .172-.868c.038-.285.062-.524.072-.718zm2.527 3.877a.225.225 0 0 1-.048.137.314.314 0 0 1-.108.082.491.491 0 0 1-.137.042.66.66 0 0 1-.133.008.56.56 0 0 1-.351-.14 1.103 1.103 0 0 1-.248-.325 1.9 1.9 0 0 1-.16-.446 5.578 5.578 0 0 1-.136-.972 12.78 12.78 0 0 1-.015-.392 19.72 19.72 0 0 1-.014-1.148c.007-.388.02-.771.04-1.15a44.648 44.648 0 0 1 .28-3.19l.026-.293a9.077 9.077 0 0 1 .077-.628.74.74 0 0 1 .048-.188v.006a.293.293 0 0 1 .071-.124c.03-.027.077-.038.143-.035a.49.49 0 0 1 .35.164.49.49 0 0 1 .128.371 1.458 1.458 0 0 1-.021.18 1.304 1.304 0 0 0-.02.152c-.02.156-.037.312-.05.467l-.046.468a37.199 37.199 0 0 0-.193 2.667 31.717 31.717 0 0 0-.014 1.674c.006.304.02.594.04.87s.05.526.087.75c.037.225.086.4.146.524a.346.346 0 0 1 .099.081.632.632 0 0 1 .082.12.89.89 0 0 1 .057.136.369.369 0 0 1 .02.132zm2.665-.115c-.004.08-.027.135-.067.163a.263.263 0 0 1-.167.037c-.184-.01-.313-.067-.388-.172a1.008 1.008 0 0 1-.158-.409 25.645 25.645 0 0 1-.026-.174 2.905 2.905 0 0 1-.02-.174.584.584 0 0 0-.018-.11.602.602 0 0 1-.018-.117 3.616 3.616 0 0 1-.192.357 2.01 2.01 0 0 1-.256.339c-.095.102-.2.185-.316.247a.687.687 0 0 1-.372.084.57.57 0 0 1-.346-.124.737.737 0 0 1-.206-.278 1.266 1.266 0 0 1-.093-.36 2.252 2.252 0 0 1-.013-.37c.014-.275.056-.571.126-.89a8.58 8.58 0 0 1 .648-1.86c.14-.29.29-.541.45-.755v.006l.038-.053c.047-.058.1-.121.16-.189.06-.067.13-.1.208-.095.075.004.137.04.189.11.05.07.086.141.106.215.1.025.182.055.243.089a.358.358 0 0 1 .203.278c.008.058.01.122.007.19l-.005.092a.805.805 0 0 1-.01.096.974.974 0 0 0-.012.115l-.007.12a.795.795 0 0 0 .013.16l.033.201.03.226c.013.118.023.252.028.402.006.15.015.3.027.45a63.083 63.083 0 0 0 .05.847l.093.903.013.104c.005.053.011.102.018.147.008.045.01.095.007.152zm-1.161-3.55c0-.009 0-.022-.004-.04a2.848 2.848 0 0 1-.008-.058c-.1.193-.191.403-.272.632a7.596 7.596 0 0 0-.413 2.093l-.002.055a.194.194 0 0 0 .003.048v.006c.101-.144.193-.337.274-.577a8.961 8.961 0 0 0 .422-2.16zm3.014 3.902a.225.225 0 0 1-.049.137.314.314 0 0 1-.107.082.491.491 0 0 1-.138.042.66.66 0 0 1-.132.008.56.56 0 0 1-.352-.14 1.103 1.103 0 0 1-.248-.326 1.9 1.9 0 0 1-.159-.445 5.577 5.577 0 0 1-.137-.972 12.777 12.777 0 0 1-.015-.392 19.72 19.72 0 0 1-.013-1.148c.007-.388.02-.772.04-1.151a44.648 44.648 0 0 1 .279-3.19l.027-.293a9.073 9.073 0 0 1 .077-.627.74.74 0 0 1 .048-.188v.006a.293.293 0 0 1 .07-.124c.03-.027.077-.039.144-.035a.49.49 0 0 1 .35.164.49.49 0 0 1 .128.37 1.457 1.457 0 0 1-.022.182 1.304 1.304 0 0 0-.02.15c-.02.157-.036.313-.05.468l-.045.468a37.206 37.206 0 0 0-.193 2.666 31.712 31.712 0 0 0-.014 1.675c.005.303.019.593.04.87.02.276.05.526.087.75.037.225.086.4.146.524a.346.346 0 0 1 .098.081.632.632 0 0 1 .082.12.742.742 0 0 1 .058.136.369.369 0 0 1 .02.132zm2.992-3.448a7.07 7.07 0 0 1-.052.546c-.026.2-.06.405-.103.617a6.952 6.952 0 0 1-.16.638 5.433 5.433 0 0 1-.223.61 3.422 3.422 0 0 1-.29.534 1.808 1.808 0 0 1-.36.403 1.176 1.176 0 0 1-.312.181.826.826 0 0 1-.347.058.469.469 0 0 1-.134-.029.168.168 0 0 1-.1-.105 1.248 1.248 0 0 1-.252-.065.377.377 0 0 1-.2-.183.538.538 0 0 1-.024-.105 7.606 7.606 0 0 1-.025-.186 2.071 2.071 0 0 0-.01-.052 22.285 22.285 0 0 1-.117-2.191c-.003-.729.015-1.462.054-2.2l.018-.34c.008-.16.019-.344.031-.55l.04-.647.042-.635c.015-.198.03-.368.045-.51.015-.143.028-.235.038-.275a.413.413 0 0 1 .071-.136c.03-.034.078-.05.144-.047.184.01.313.076.387.2a.769.769 0 0 1 .097.445l-.108 2.067a32.43 32.43 0 0 0-.044 1.39 2.13 2.13 0 0 1 .19-.312c.074-.1.156-.192.247-.272.09-.08.19-.144.298-.19a.781.781 0 0 1 .356-.06.75.75 0 0 1 .448.15c.111.09.193.203.247.338.054.134.087.282.1.445.014.162.016.318.008.468zm-.802-.182c.004-.08.006-.17.005-.267a.558.558 0 0 0-.06-.258.566.566 0 0 0-.096.086 1.752 1.752 0 0 0-.084.105l-.013.018v-.006c-.12.18-.22.39-.3.633-.082.243-.15.495-.205.757a8.42 8.42 0 0 0-.126.782 11.87 11.87 0 0 0-.068.901c-.003.087 0 .159.009.216.16-.125.296-.313.41-.564.112-.251.207-.523.283-.817a7.38 7.38 0 0 0 .172-.868c.039-.285.063-.524.073-.718zm2.527 3.877a.225.225 0 0 1-.049.137.314.314 0 0 1-.107.082.491.491 0 0 1-.138.042.66.66 0 0 1-.132.008.56.56 0 0 1-.352-.14 1.103 1.103 0 0 1-.248-.325 1.9 1.9 0 0 1-.159-.446 5.577 5.577 0 0 1-.137-.972 12.777 12.777 0 0 1-.015-.392 19.72 19.72 0 0 1-.013-1.148c.007-.388.02-.772.04-1.15a44.648 44.648 0 0 1 .279-3.19l.027-.293a9.075 9.075 0 0 1 .077-.628.74.74 0 0 1 .048-.188v.006a.293.293 0 0 1 .07-.124c.03-.027.077-.038.144-.035a.49.49 0 0 1 .35.164.49.49 0 0 1 .128.37 1.458 1.458 0 0 1-.022.182 1.304 1.304 0 0 0-.02.15c-.02.157-.036.313-.05.468l-.045.468a37.206 37.206 0 0 0-.193 2.667 31.711 31.711 0 0 0-.014 1.674c.005.304.019.594.04.87.02.276.05.526.087.75.037.225.086.4.146.524a.346.346 0 0 1 .098.081.632.632 0 0 1 .082.12c.024.044.043.09.058.136a.369.369 0 0 1 .02.132zm1.648.086a.225.225 0 0 1-.048.137.314.314 0 0 1-.108.083.491.491 0 0 1-.137.041.66.66 0 0 1-.133.008.56.56 0 0 1-.351-.14 1.103 1.103 0 0 1-.248-.325 1.9 1.9 0 0 1-.16-.445 5.577 5.577 0 0 1-.136-.972 12.777 12.777 0 0 1-.015-.393 19.72 19.72 0 0 1-.013-1.147c.006-.388.02-.772.04-1.151a44.648 44.648 0 0 1 .278-3.19c.009-.085.018-.182.027-.293a9.073 9.073 0 0 1 .077-.627.74.74 0 0 1 .048-.189v.006a.293.293 0 0 1 .071-.124c.03-.026.077-.038.143-.035a.49.49 0 0 1 .35.164.49.49 0 0 1 .128.371 1.457 1.457 0 0 1-.021.181 1.304 1.304 0 0 0-.02.151c-.02.157-.037.313-.05.468l-.046.468a37.206 37.206 0 0 0-.192 2.666 31.717 31.717 0 0 0-.015 1.674c.006.304.02.594.04.87s.05.527.087.751c.037.225.086.4.146.524a.346.346 0 0 1 .099.08.632.632 0 0 1 .082.12.97.97 0 0 1 .058.137.369.369 0 0 1 .02.131zm2.665-.115c-.004.08-.026.135-.067.164a.263.263 0 0 1-.167.036c-.184-.01-.313-.067-.388-.172a1.008 1.008 0 0 1-.158-.409 25.645 25.645 0 0 1-.026-.174 2.906 2.906 0 0 1-.02-.174.584.584 0 0 0-.018-.11.602.602 0 0 1-.018-.116 3.616 3.616 0 0 1-.192.357c-.075.123-.16.236-.256.338-.095.103-.2.185-.316.248a.687.687 0 0 1-.372.083.57.57 0 0 1-.346-.124.737.737 0 0 1-.206-.278 1.266 1.266 0 0 1-.093-.36 2.252 2.252 0 0 1-.013-.37c.014-.275.056-.571.126-.89a8.58 8.58 0 0 1 .648-1.86c.14-.289.29-.54.45-.755v.006l.039-.052c.046-.059.099-.122.16-.19a.254.254 0 0 1 .207-.095c.075.004.137.04.189.11.051.07.087.141.106.215.1.026.182.055.243.089a.358.358 0 0 1 .203.278c.008.059.01.123.007.191l-.004.09a.805.805 0 0 1-.011.097.973.973 0 0 0-.012.115l-.007.121a.795.795 0 0 0 .013.159l.033.202.03.226c.013.118.023.252.028.402.006.15.015.3.027.45a63.083 63.083 0 0 0 .05.846l.094.904.012.103c.005.053.011.102.019.147.007.045.01.096.006.152zm-1.16-3.55l-.005-.04a2.841 2.841 0 0 1-.008-.058c-.1.193-.191.404-.272.632a7.595 7.595 0 0 0-.413 2.093l-.002.055a.205.205 0 0 0 .003.049v.006c.101-.145.193-.337.274-.578a8.96 8.96 0 0 0 .422-2.16zm4.404.37a7.07 7.07 0 0 1-.052.547 9.65 9.65 0 0 1-.103.616 6.952 6.952 0 0 1-.16.638 5.433 5.433 0 0 1-.223.61 3.422 3.422 0 0 1-.29.535 1.808 1.808 0 0 1-.36.403 1.176 1.176 0 0 1-.312.18.826.826 0 0 1-.347.058.469.469 0 0 1-.134-.028.168.168 0 0 1-.1-.106 1.248 1.248 0 0 1-.253-.064.377.377 0 0 1-.2-.184.538.538 0 0 1-.023-.104 7.606 7.606 0 0 1-.026-.187 2.071 2.071 0 0 0-.009-.052 22.285 22.285 0 0 1-.117-2.19c-.003-.73.015-1.462.053-2.2l.018-.34c.008-.161.02-.345.032-.55l.04-.648a35.086 35.086 0 0 1 .086-1.145 2.56 2.56 0 0 1 .038-.274.413.413 0 0 1 .072-.136c.03-.035.077-.05.144-.047.183.01.312.076.386.199a.769.769 0 0 1 .097.445l-.108 2.067a32.43 32.43 0 0 0-.043 1.39 2.13 2.13 0 0 1 .19-.311 1.74 1.74 0 0 1 .246-.273c.09-.08.19-.143.298-.19a.781.781 0 0 1 .357-.06c.187.01.337.06.448.15a.84.84 0 0 1 .247.338c.053.134.087.283.1.445.013.163.016.319.008.468zm-.803-.182c.005-.08.006-.17.006-.266a.558.558 0 0 0-.06-.258.566.566 0 0 0-.096.086c-.027.03-.056.066-.085.104l-.013.018v-.006c-.119.18-.219.391-.3.634-.082.242-.15.494-.205.757a8.42 8.42 0 0 0-.126.782 11.87 11.87 0 0 0-.068.9c-.002.087 0 .16.01.217.159-.126.295-.314.408-.565a4.98 4.98 0 0 0 .284-.816 7.38 7.38 0 0 0 .172-.868c.039-.285.063-.525.073-.719zm2.527 3.877a.225.225 0 0 1-.048.137.314.314 0 0 1-.108.083.491.491 0 0 1-.137.041.66.66 0 0 1-.133.008.56.56 0 0 1-.352-.14 1.103 1.103 0 0 1-.247-.325 1.9 1.9 0 0 1-.16-.445 5.577 5.577 0 0 1-.137-.972 12.777 12.777 0 0 1-.014-.393 19.72 19.72 0 0 1-.014-1.147c.007-.388.02-.772.04-1.151a44.648 44.648 0 0 1 .279-3.19l.027-.293a9.075 9.075 0 0 1 .077-.627.74.74 0 0 1 .048-.189v.006a.293.293 0 0 1 .071-.124c.029-.026.077-.038.143-.035a.49.49 0 0 1 .35.165.49.49 0 0 1 .128.37 1.458 1.458 0 0 1-.021.181 1.304 1.304 0 0 0-.02.151c-.02.157-.037.313-.05.468l-.046.468a37.206 37.206 0 0 0-.193 2.666 31.711 31.711 0 0 0-.014 1.674c.006.304.02.594.04.87s.05.527.087.751c.037.225.086.4.146.524a.346.346 0 0 1 .099.08.632.632 0 0 1 .082.12c.023.044.042.09.057.137a.369.369 0 0 1 .02.131zm-40.025 35.308c0 .165-.008.348-.023.548-.016.2-.04.407-.07.62-.032.215-.074.43-.127.646a5.441 5.441 0 0 1-.19.621 3.57 3.57 0 0 1-.261.549c-.1.168-.212.308-.337.421-.09.081-.19.147-.302.197a.822.822 0 0 1-.343.076.467.467 0 0 1-.135-.021.168.168 0 0 1-.106-.1 1.242 1.242 0 0 1-.255-.052.376.376 0 0 1-.208-.173.539.539 0 0 1-.029-.103 7.631 7.631 0 0 1-.035-.184 2.075 2.075 0 0 0-.012-.052 22.331 22.331 0 0 1-.231-2.182 39.045 39.045 0 0 1-.062-2.2v-.34l.003-.55.006-.65c.002-.225.005-.438.009-.636.003-.198.01-.368.017-.512a2.7 2.7 0 0 1 .024-.275.413.413 0 0 1 .064-.14c.027-.036.074-.054.14-.054.184 0 .316.06.397.178.08.12.12.266.12.44v2.07a32.497 32.497 0 0 0 .029 1.39 2.12 2.12 0 0 1 .173-.32c.068-.106.146-.2.232-.286.085-.084.181-.153.287-.206a.778.778 0 0 1 .352-.078c.187 0 .339.042.454.127a.825.825 0 0 1 .264.324c.06.131.101.278.123.44.021.161.032.317.032.466zm-.809-.14c0-.081-.003-.17-.009-.267a.559.559 0 0 0-.073-.255.565.565 0 0 0-.09.091 1.91 1.91 0 0 0-.08.11l-.012.018v-.006c-.11.185-.198.402-.267.648a6.71 6.71 0 0 0-.164.767c-.04.264-.07.527-.085.788a11.895 11.895 0 0 0-.02.903c.002.087.009.158.02.215.153-.134.279-.328.378-.585.1-.257.18-.533.24-.83.061-.297.103-.59.127-.876a9.32 9.32 0 0 0 .035-.721zm5.722 3.74a.226.226 0 0 1-.041.138.313.313 0 0 1-.103.088.49.49 0 0 1-.135.049.658.658 0 0 1-.132.015.557.557 0 0 1-.357-.121 1.102 1.102 0 0 1-.264-.312 1.903 1.903 0 0 1-.182-.437 5.587 5.587 0 0 1-.187-.963 12.805 12.805 0 0 1-.036-.391c-.035-.376-.06-.758-.073-1.146-.014-.388-.02-.771-.02-1.151a44.744 44.744 0 0 1 .111-3.2l.012-.294a9.096 9.096 0 0 1 .044-.63.741.741 0 0 1 .038-.191v.006a.293.293 0 0 1 .064-.128c.028-.028.074-.042.14-.042.142 0 .26.048.359.145a.491.491 0 0 1 .146.364 1.46 1.46 0 0 1-.012.182 1.308 1.308 0 0 0-.011.151c-.012.158-.02.315-.027.47-.006.156-.012.312-.02.47a37.282 37.282 0 0 0-.053 2.673 31.786 31.786 0 0 0 .073 1.672c.022.303.05.592.085.867s.077.523.126.745c.05.223.107.394.173.516.035.016.07.041.103.075a.631.631 0 0 1 .088.115.833.833 0 0 1 .064.134.37.37 0 0 1 .027.13zm5.651-.255c0 .08-.02.136-.059.166a.262.262 0 0 1-.164.046c-.184 0-.315-.05-.396-.152a1.01 1.01 0 0 1-.178-.4 25.694 25.694 0 0 1-.036-.173 2.911 2.911 0 0 1-.029-.172.585.585 0 0 0-.023-.11.603.603 0 0 1-.024-.115 3.62 3.62 0 0 1-.173.367 2.065 2.065 0 0 1-.237.352c-.09.107-.19.195-.302.263a.685.685 0 0 1-.366.103.568.568 0 0 1-.352-.106.737.737 0 0 1-.22-.266 1.268 1.268 0 0 1-.111-.355 2.257 2.257 0 0 1-.033-.37c0-.274.027-.572.08-.894a8.593 8.593 0 0 1 .548-1.89c.125-.297.262-.557.41-.78v.007l.035-.055c.043-.06.093-.126.15-.197a.253.253 0 0 1 .202-.106c.074 0 .139.034.193.1a.639.639 0 0 1 .118.21c.101.02.183.045.246.075a.358.358 0 0 1 .217.267.973.973 0 0 1 .017.19v.092a.807.807 0 0 1-.005.096.976.976 0 0 0-.006.116v.12a.76.76 0 0 0 .02.158l.044.2.041.225c.02.117.036.25.05.4.014.15.03.299.05.448a63.215 63.215 0 0 0 .094.843l.14.897.018.103c.008.052.017.1.026.145.01.044.015.095.015.152zm-1.343-3.485a.214.214 0 0 0-.005-.04 2.86 2.86 0 0 1-.012-.057c-.09.198-.17.413-.238.645a7.61 7.61 0 0 0-.302 2.112v.055c0 .016.003.032.006.048v.006c.094-.15.175-.346.244-.59a8.98 8.98 0 0 0 .308-2.179zm6.209 3.74a.226.226 0 0 1-.041.138.313.313 0 0 1-.103.088.49.49 0 0 1-.135.049.658.658 0 0 1-.132.015.557.557 0 0 1-.357-.121 1.102 1.102 0 0 1-.264-.312 1.903 1.903 0 0 1-.182-.437 5.587 5.587 0 0 1-.187-.963 12.804 12.804 0 0 1-.036-.391c-.035-.376-.06-.758-.073-1.146-.014-.388-.02-.771-.02-1.151a44.743 44.743 0 0 1 .111-3.2l.012-.294a9.093 9.093 0 0 1 .044-.63.741.741 0 0 1 .038-.191v.006a.293.293 0 0 1 .064-.128c.028-.028.075-.042.141-.042.14 0 .26.048.358.145a.491.491 0 0 1 .146.364 1.46 1.46 0 0 1-.012.182 1.307 1.307 0 0 0-.011.151c-.012.158-.02.315-.027.47-.006.156-.012.312-.02.47a37.286 37.286 0 0 0-.053 2.673 31.78 31.78 0 0 0 .073 1.672c.022.303.05.592.085.867.036.275.078.523.126.745.05.223.107.394.173.516.035.016.07.041.103.075a.632.632 0 0 1 .088.115.833.833 0 0 1 .064.134.37.37 0 0 1 .027.13zm5.803-3.6c0 .165-.007.348-.023.548-.016.2-.04.407-.07.62-.032.215-.074.43-.126.646a5.441 5.441 0 0 1-.19.621 3.481 3.481 0 0 1-.262.549c-.1.168-.212.308-.337.421-.09.081-.19.147-.302.197a.822.822 0 0 1-.343.076.467.467 0 0 1-.135-.021.168.168 0 0 1-.105-.1 1.242 1.242 0 0 1-.255-.052.376.376 0 0 1-.208-.173.539.539 0 0 1-.03-.103 7.62 7.62 0 0 1-.035-.184 2.07 2.07 0 0 0-.011-.052 22.331 22.331 0 0 1-.232-2.182 39.045 39.045 0 0 1-.062-2.2v-.34l.003-.55.006-.65c.002-.225.005-.438.009-.636.004-.198.01-.368.018-.512a2.7 2.7 0 0 1 .023-.275.413.413 0 0 1 .065-.14c.027-.036.074-.054.14-.054.184 0 .316.06.396.178.08.12.12.266.12.44v2.07a32.497 32.497 0 0 0 .03 1.39c.046-.109.104-.216.172-.32.069-.106.146-.2.232-.286.086-.084.182-.153.287-.206a.778.778 0 0 1 .352-.078c.188 0 .339.042.454.127a.825.825 0 0 1 .264.324c.06.131.102.278.123.44.022.161.032.317.032.466zm-.809-.14c0-.081-.003-.17-.008-.267a.559.559 0 0 0-.074-.255.565.565 0 0 0-.09.091 1.91 1.91 0 0 0-.08.11l-.011.018v-.006c-.11.185-.199.402-.267.648a6.71 6.71 0 0 0-.164.767c-.041.264-.07.527-.085.788a11.895 11.895 0 0 0-.02.903c.001.087.008.158.02.215.152-.134.278-.328.378-.585.1-.257.18-.533.24-.83.06-.297.103-.59.126-.876.024-.287.035-.527.035-.721zm5.722 3.74a.226.226 0 0 1-.041.138.313.313 0 0 1-.103.088.49.49 0 0 1-.134.049.658.658 0 0 1-.132.015.557.557 0 0 1-.358-.121 1.102 1.102 0 0 1-.264-.312 1.903 1.903 0 0 1-.181-.437 5.587 5.587 0 0 1-.188-.963 12.808 12.808 0 0 1-.035-.391c-.035-.376-.06-.758-.073-1.146a31.893 31.893 0 0 1-.021-1.151 44.743 44.743 0 0 1 .111-3.2l.012-.294a9.096 9.096 0 0 1 .044-.63.741.741 0 0 1 .038-.191v.006a.293.293 0 0 1 .065-.128c.027-.028.074-.042.14-.042.141 0 .26.048.358.145a.491.491 0 0 1 .147.364 1.46 1.46 0 0 1-.012.182 1.307 1.307 0 0 0-.012.151c-.012.158-.02.315-.026.47l-.02.47a37.282 37.282 0 0 0-.054 2.673 31.78 31.78 0 0 0 .074 1.672c.021.303.05.592.085.867s.077.523.126.745c.049.223.106.394.173.516a.33.33 0 0 1 .102.075.632.632 0 0 1 .088.115.833.833 0 0 1 .065.134.37.37 0 0 1 .026.13zm10.412-.255c0 .08-.02.136-.059.166a.262.262 0 0 1-.164.046c-.184 0-.316-.05-.396-.152a1.01 1.01 0 0 1-.179-.4 25.632 25.632 0 0 1-.035-.173 2.91 2.91 0 0 1-.03-.172.585.585 0 0 0-.023-.11.603.603 0 0 1-.023-.115 3.62 3.62 0 0 1-.173.367 2.065 2.065 0 0 1-.237.352c-.09.107-.19.195-.302.263a.685.685 0 0 1-.367.103.568.568 0 0 1-.351-.106.737.737 0 0 1-.22-.266 1.268 1.268 0 0 1-.112-.355 2.257 2.257 0 0 1-.032-.37c0-.274.026-.572.08-.894a8.593 8.593 0 0 1 .548-1.89c.124-.297.261-.557.41-.78v.007l.035-.055c.043-.06.093-.126.15-.197a.253.253 0 0 1 .202-.106c.074 0 .138.034.193.1a.639.639 0 0 1 .117.21c.102.02.184.045.247.075a.358.358 0 0 1 .217.267.973.973 0 0 1 .017.19v.092a.807.807 0 0 1-.006.096.976.976 0 0 0-.006.116v.12c0 .041.007.094.02.158l.045.2.04.225c.02.117.037.25.05.4.014.15.031.299.05.448a63.215 63.215 0 0 0 .094.843l.141.897.018.103c.007.052.016.1.026.145a.71.71 0 0 1 .015.152zm-1.343-3.485a.214.214 0 0 0-.006-.04 2.846 2.846 0 0 1-.011-.057c-.09.198-.17.413-.238.645a7.611 7.611 0 0 0-.302 2.112v.055c0 .016.002.032.006.048v.006a2.26 2.26 0 0 0 .243-.59 8.98 8.98 0 0 0 .308-2.179zm6.208 3.74a.226.226 0 0 1-.04.138.313.313 0 0 1-.103.088.49.49 0 0 1-.135.049.658.658 0 0 1-.132.015.557.557 0 0 1-.358-.121 1.102 1.102 0 0 1-.263-.312 1.903 1.903 0 0 1-.182-.437 5.587 5.587 0 0 1-.188-.963 12.808 12.808 0 0 1-.035-.391c-.035-.376-.06-.758-.073-1.146-.014-.388-.02-.771-.02-1.151a44.744 44.744 0 0 1 .11-3.2c.005-.085.008-.183.012-.294a9.098 9.098 0 0 1 .044-.63.741.741 0 0 1 .038-.191v.006a.293.293 0 0 1 .065-.128c.027-.028.074-.042.14-.042.141 0 .26.048.358.145a.491.491 0 0 1 .147.364 1.46 1.46 0 0 1-.012.182 1.307 1.307 0 0 0-.012.151c-.011.158-.02.315-.026.47l-.02.47a37.282 37.282 0 0 0-.053 2.673 31.786 31.786 0 0 0 .073 1.672c.021.303.05.592.085.867s.077.523.126.745c.049.223.107.394.173.516.035.016.07.041.103.075a.631.631 0 0 1 .088.115.833.833 0 0 1 .064.134.37.37 0 0 1 .026.13zm5.851-3.6c0 .165-.008.348-.023.548-.016.2-.04.407-.07.62-.032.215-.074.43-.127.646a5.442 5.442 0 0 1-.19.621 3.57 3.57 0 0 1-.261.549c-.1.168-.212.308-.337.421-.09.081-.19.147-.302.197a.822.822 0 0 1-.343.076.467.467 0 0 1-.135-.021.168.168 0 0 1-.106-.1 1.242 1.242 0 0 1-.255-.052.376.376 0 0 1-.208-.173.539.539 0 0 1-.029-.103 7.62 7.62 0 0 1-.035-.184 2.08 2.08 0 0 0-.012-.052 22.332 22.332 0 0 1-.231-2.182 39.045 39.045 0 0 1-.062-2.2v-.34l.003-.55.006-.65c.002-.225.005-.438.009-.636.004-.198.01-.368.017-.512a2.7 2.7 0 0 1 .024-.275.413.413 0 0 1 .064-.14c.027-.036.074-.054.14-.054.184 0 .316.06.397.178.08.12.12.266.12.44v2.07a32.497 32.497 0 0 0 .029 1.39 2.12 2.12 0 0 1 .173-.32c.068-.106.146-.2.232-.286.085-.084.181-.153.287-.206a.778.778 0 0 1 .352-.078c.187 0 .339.042.454.127a.825.825 0 0 1 .264.324c.06.131.101.278.123.44.021.161.032.317.032.466zm-.809-.14c0-.081-.003-.17-.009-.267a.559.559 0 0 0-.073-.255.565.565 0 0 0-.09.091 1.91 1.91 0 0 0-.08.11l-.012.018v-.006c-.11.185-.198.402-.267.648a6.71 6.71 0 0 0-.164.767c-.04.264-.07.527-.085.788a11.895 11.895 0 0 0-.02.903c.002.087.009.158.02.215.153-.134.279-.328.378-.585.1-.257.18-.533.24-.83.061-.297.103-.59.127-.876a9.32 9.32 0 0 0 .035-.721zm-43.883-15.293a.357.357 0 0 1-.04.157c-.026.068-.05.124-.074.168a.284.284 0 0 1-.083.1.288.288 0 0 1-.117.048.818.818 0 0 1-.174.009l-1.602-.056a2.17 2.17 0 0 1-.103-.007.652.652 0 0 1-.123-.022.287.287 0 0 1-.104-.053c-.029-.023-.042-.057-.04-.101a.377.377 0 0 1 .108-.255.441.441 0 0 1 .247-.134c.079-.01.158-.014.236-.013.079 0 .157-.002.236-.007l.673-.016c.224-.007.452-.006.684.002.027.001.058.003.09.007.034.003.065.01.094.021.03.011.053.03.07.054a.162.162 0 0 1 .022.098zm2.274.08a.357.357 0 0 1-.041.156c-.026.068-.05.124-.074.168a.284.284 0 0 1-.083.1.288.288 0 0 1-.117.048.818.818 0 0 1-.174.009l-1.602-.056a2.169 2.169 0 0 1-.103-.007.652.652 0 0 1-.123-.022.287.287 0 0 1-.104-.052c-.029-.024-.042-.058-.04-.102a.377.377 0 0 1 .108-.255.441.441 0 0 1 .247-.134c.079-.01.158-.014.236-.013a3.1 3.1 0 0 0 .236-.007c.224-.004.449-.01.673-.016.224-.006.452-.005.684.003.027 0 .058.003.091.006.033.003.064.01.094.021.029.012.052.03.068.055a.162.162 0 0 1 .024.098zm4.975-.495c-.001.048-.026.088-.075.119a.622.622 0 0 1-.17.073 1.287 1.287 0 0 1-.34.043.709.709 0 0 1-.191-.028.893.893 0 0 1-.171-.082.975.975 0 0 1-.133-.16 12.01 12.01 0 0 1-.259-.365l-.348-.51-.398-.589c-.136-.201-.27-.402-.403-.603l-.367-.554a23.024 23.024 0 0 1-.288-.442l-.17-.264-.037.01c.007.483.02.965.041 1.446.021.48.068.958.142 1.43l.033.153a.647.647 0 0 1 .015.165c-.003.093-.035.152-.095.176a.471.471 0 0 1-.195.033 1.967 1.967 0 0 1-.141-.011 1.33 1.33 0 0 1-.33-.082.305.305 0 0 1-.113-.073.314.314 0 0 1-.098-.156 2.055 2.055 0 0 1-.032-.19 23.857 23.857 0 0 1-.129-2.457 68.45 68.45 0 0 1 .084-3.508c.016-.343.034-.693.055-1.05a.272.272 0 0 1-.131-.052.458.458 0 0 1-.106-.11.557.557 0 0 1-.068-.137.384.384 0 0 1-.022-.137.304.304 0 0 1 .037-.133.505.505 0 0 1 .087-.118 1.076 1.076 0 0 1 .22-.175l.005-.11c.001-.04.004-.086.007-.139a.603.603 0 0 1 .03-.148.259.259 0 0 1 .071-.113c.032-.029.08-.042.143-.04.082.003.164.02.246.05a.47.47 0 0 1 .206.16c.3-.111.611-.16.937-.15.287.01.546.078.777.204.232.125.427.29.587.495.16.204.28.437.362.7.081.261.117.534.107.817-.01.304-.076.597-.196.878a3.85 3.85 0 0 1-.458.796 4.41 4.41 0 0 1-.628.68 5.634 5.634 0 0 1-.705.531 84.28 84.28 0 0 0 2.18 3.067l.105.132a3.613 3.613 0 0 1 .269.386c.035.062.052.11.051.142zm-1.486-6.74a1.554 1.554 0 0 0-.06-.47 1.552 1.552 0 0 0-.203-.447 1.247 1.247 0 0 0-.327-.337.792.792 0 0 0-.434-.143c-.13-.004-.26.01-.388.045a2.213 2.213 0 0 0-.373.135 556.41 556.41 0 0 1-.043 1.81 182.72 182.72 0 0 0-.036 1.81l.105.017a3.812 3.812 0 0 0 1.176-.998c.166-.214.303-.441.41-.683.107-.241.164-.487.173-.738zm5.613 5.583a.314.314 0 0 1-.087.197 1.335 1.335 0 0 1-.198.182 2.564 2.564 0 0 1-.235.159l-.199.118a7.932 7.932 0 0 1-.406.235 3.17 3.17 0 0 1-.414.186 2.653 2.653 0 0 1-.434.118 2.148 2.148 0 0 1-.464.033l-.095.009a1.662 1.662 0 0 1-.384-.06 1.341 1.341 0 0 1-.351-.151 1.165 1.165 0 0 1-.286-.25 1.02 1.02 0 0 1-.188-.36 2.209 2.209 0 0 1-.07-.391 6.74 6.74 0 0 1-.027-.47 20.968 20.968 0 0 1-.007-.477v-.416c-.016-1.24-.02-2.481-.012-3.72a15.392 15.392 0 0 1 .007-.852 3.96 3.96 0 0 1 .062-.618.932.932 0 0 1 .18-.413.688.688 0 0 1 .364-.224c.157-.043.363-.06.618-.051.256.008.512.02.769.032.257.013.515.025.774.034.078.002.157.002.236-.001a.717.717 0 0 1 .234.03.424.424 0 0 1 .123.043c.034.02.05.06.049.12-.005.146-.056.253-.153.32a.793.793 0 0 1-.34.131c-.131.02-.266.026-.405.02-.14-.008-.254-.013-.345-.016l-1-.035a2.296 2.296 0 0 0-.237.004.777.777 0 0 0-.053.187c-.01.064-.017.131-.02.2a25.98 25.98 0 0 0-.012 1.306c.006.43.012.866.016 1.308a20.923 20.923 0 0 0 1.454-.12c.036.002.068 0 .098-.002a.67.67 0 0 1 .091-.003c.083.003.14.027.172.073a.309.309 0 0 1 .043.19 1.454 1.454 0 0 1-.014.157.572.572 0 0 1-.044.145.308.308 0 0 1-.141.171.649.649 0 0 1-.215.068c-.079.012-.16.016-.245.013a3.49 3.49 0 0 0-.22-.001c-.166.002-.328.002-.487 0-.16 0-.32 0-.481.002l.01.958a45.894 45.894 0 0 0 .035 1.302c.009.201.02.377.035.527.014.15.03.253.048.306.04.086.087.144.141.172a.509.509 0 0 0 .217.047c.145.005.3-.019.462-.072.163-.053.323-.122.48-.208a4.143 4.143 0 0 0 .822-.594l.133-.108a.223.223 0 0 1 .155-.053.305.305 0 0 1 .17.061.703.703 0 0 1 .24.324.486.486 0 0 1 .03.178zm4.186-5.07c-.014.401-.09.802-.228 1.202-.138.4-.324.773-.558 1.117a4.358 4.358 0 0 1-.83.914 3.36 3.36 0 0 1-1.041.59c.012.336.028.671.047 1.004.02.333.052.669.095 1.006.01.062.02.125.032.19a.963.963 0 0 1 .013.201c-.003.105-.031.175-.084.21a.371.371 0 0 1-.22.047 1.46 1.46 0 0 1-.24-.033.906.906 0 0 1-.239-.081.393.393 0 0 1-.151-.142.577.577 0 0 1-.05-.193 6.853 6.853 0 0 1-.084-1.037 36.37 36.37 0 0 0-.02-1.034.42.42 0 0 1-.192-.07c-.05-.037-.073-.097-.07-.182a.565.565 0 0 1 .076-.253.635.635 0 0 1 .163-.2c-.009-.755.003-1.502.034-2.243.032-.74.057-1.487.076-2.24a.41.41 0 0 1-.054.016.213.213 0 0 1-.053.004.163.163 0 0 1-.105-.037.272.272 0 0 1-.065-.084.379.379 0 0 1-.034-.108.534.534 0 0 1-.008-.106c.004-.122.036-.209.097-.261.06-.053.143-.1.247-.14.001-.045.004-.097.008-.156a.716.716 0 0 1 .03-.163.304.304 0 0 1 .072-.125c.032-.033.08-.049.143-.046.102.003.2.027.292.07a.411.411 0 0 1 .205.214c.138-.02.272-.037.403-.052.13-.016.264-.022.401-.017.31.011.585.074.825.19s.44.273.602.471c.162.198.283.43.362.697.08.266.114.553.103.86zm-.88-.14a1.895 1.895 0 0 0-.052-.528 1.224 1.224 0 0 0-.197-.432.99.99 0 0 0-.35-.295 1.186 1.186 0 0 0-.508-.121 2.163 2.163 0 0 0-.64.075c-.025.74-.046 1.476-.062 2.204-.015.73-.014 1.461.003 2.195.256-.125.492-.303.709-.534.216-.232.404-.49.563-.774.16-.284.286-.582.38-.893.093-.31.144-.61.154-.897zm4.628 5.925c-.003.093-.054.18-.153.262-.1.081-.226.155-.38.22a4.238 4.238 0 0 1-.507.177 6.678 6.678 0 0 1-1.024.208 2.367 2.367 0 0 1-.325.022 1.321 1.321 0 0 1-.367-.062.82.82 0 0 1-.286-.159.66.66 0 0 1-.182-.264.97.97 0 0 1-.055-.385c.038-1.08.08-2.157.125-3.23.045-1.072.087-2.153.125-3.242.006-.17.008-.338.006-.504-.002-.166 0-.334.006-.504 0-.04.005-.088.01-.143a.61.61 0 0 1 .035-.15.31.31 0 0 1 .075-.117.172.172 0 0 1 .131-.044.676.676 0 0 1 .478.233c.04.048.069.103.086.164a.82.82 0 0 1 .018.235l-.011.252a357.466 357.466 0 0 1-.175 6.778c-.002.121 0 .243.008.365.106 0 .236-.014.39-.041a4.492 4.492 0 0 0 .912-.266c.14-.06.25-.125.33-.196l.117-.108a.202.202 0 0 1 .149-.053.303.303 0 0 1 .16.06.715.715 0 0 1 .151.143.894.894 0 0 1 .112.177c.03.062.043.119.041.172zm4.485-2.3a.502.502 0 0 1-.098.264.645.645 0 0 1-.202.2.391.391 0 0 1-.1.033c-.048.01-.099.02-.152.028a10.64 10.64 0 0 0-.154.025c-.05.009-.088.014-.116.017l.11.904c.033.28.056.562.068.844.012.282.052.562.12.84l.022.068c.007.02.01.047.01.08a.167.167 0 0 1-.05.12.284.284 0 0 1-.108.06.552.552 0 0 1-.133.022c-.047.002-.09.003-.13.001l-.082-.002a.99.99 0 0 1-.279-.04.284.284 0 0 1-.146-.109.422.422 0 0 1-.065-.188c-.009-.075-.02-.168-.031-.277a72.086 72.086 0 0 0-.24-2.234 42.748 42.748 0 0 1-1.479.119l-.23 1.183-.043.297a15.92 15.92 0 0 1-.06.384 6.39 6.39 0 0 1-.072.365.961.961 0 0 1-.082.246.413.413 0 0 1-.068.101c-.02.02-.058.029-.113.027a.598.598 0 0 1-.386-.162.495.495 0 0 1-.16-.392c.002-.081.013-.162.034-.242.02-.08.038-.161.053-.242.052-.265.1-.53.145-.794.045-.264.093-.527.146-.788a.739.739 0 0 1-.196-.068.3.3 0 0 1-.083-.063.118.118 0 0 1-.032-.087.17.17 0 0 1 .048-.11.632.632 0 0 1 .11-.094.94.94 0 0 1 .242-.122c.103-.564.2-1.126.295-1.686.094-.56.18-1.126.26-1.699.021-.153.04-.309.057-.466l.055-.472c.02-.158.043-.313.07-.466.027-.153.062-.306.107-.458a.777.777 0 0 1 .189-.346c.085-.086.209-.127.37-.121a.783.783 0 0 1 .138.017c.045.01.084.027.119.053.1.056.2.203.303.442.101.238.201.527.3.864.098.338.19.703.277 1.095a39.34 39.34 0 0 1 .412 2.133l.106.657.249-.024a2.03 2.03 0 0 1 .383.004.51.51 0 0 1 .143.038c.045.02.081.048.11.083a.203.203 0 0 1 .039.138zm-1.848-.113a52.47 52.47 0 0 0-.273-1.72c-.1-.57-.22-1.138-.362-1.706a88.536 88.536 0 0 1-.621 3.613 19.363 19.363 0 0 0 1.256-.187zm6.393 1.816a.619.619 0 0 1-.033.178 4.43 4.43 0 0 1-.062.171 3.39 3.39 0 0 1-.34.63 2.291 2.291 0 0 1-.454.492 1.883 1.883 0 0 1-1.264.411 1.624 1.624 0 0 1-.852-.248 2.1 2.1 0 0 1-.593-.59 3.296 3.296 0 0 1-.388-.794 6.242 6.242 0 0 1-.226-.871c-.08-.42-.137-.84-.174-1.262-.036-.42-.047-.841-.032-1.262a8.99 8.99 0 0 1 .059-.764c.03-.262.078-.521.142-.776.064-.255.147-.502.25-.74.102-.237.228-.455.376-.655.149-.2.323-.374.523-.526.2-.15.43-.266.693-.346.095-.033.194-.055.297-.066.103-.01.205-.014.307-.01.204.007.397.048.58.123.181.076.34.178.475.309.135.13.24.286.314.467.074.18.107.38.1.599-.003.073-.02.127-.053.162s-.088.052-.167.049a.658.658 0 0 1-.336-.085.643.643 0 0 1-.19-.189 1.133 1.133 0 0 1-.12-.241 1.33 1.33 0 0 0-.112-.241.59.59 0 0 0-.182-.189.614.614 0 0 0-.321-.084.919.919 0 0 0-.389.069c-.121.05-.234.118-.337.204a1.857 1.857 0 0 0-.281.29c-.085.11-.16.22-.227.33-.176.31-.303.643-.383.999a5.847 5.847 0 0 0-.137 1.074 9.61 9.61 0 0 0-.002.471 14.189 14.189 0 0 0 .091 1.371c.03.259.07.512.117.761.049.25.11.488.182.718.072.23.158.43.256.604s.21.314.339.42a.71.71 0 0 0 .44.167.76.76 0 0 0 .451-.121 1.28 1.28 0 0 0 .345-.335c.097-.136.18-.285.246-.447a4.47 4.47 0 0 0 .16-.453l.036-.108a.283.283 0 0 1 .044-.084.165.165 0 0 1 .07-.052.301.301 0 0 1 .119-.014.95.95 0 0 1 .41.142.657.657 0 0 1 .169.151.288.288 0 0 1 .064.191zm4.459.63a.314.314 0 0 1-.087.198 1.335 1.335 0 0 1-.198.181 2.564 2.564 0 0 1-.235.16l-.199.117a7.932 7.932 0 0 1-.406.235 3.17 3.17 0 0 1-.413.186 2.653 2.653 0 0 1-.435.119 2.148 2.148 0 0 1-.464.032l-.094.009a1.662 1.662 0 0 1-.385-.06 1.341 1.341 0 0 1-.35-.151 1.165 1.165 0 0 1-.287-.25 1.02 1.02 0 0 1-.188-.36 2.209 2.209 0 0 1-.069-.391 6.74 6.74 0 0 1-.028-.47 20.968 20.968 0 0 1-.007-.477v-.416c-.015-1.24-.02-2.48-.011-3.72a15.388 15.388 0 0 1 .006-.852 3.96 3.96 0 0 1 .063-.617.932.932 0 0 1 .18-.414.688.688 0 0 1 .364-.224c.157-.043.362-.06.618-.051.255.009.51.02.768.033.257.013.515.024.774.033.079.002.157.002.236-.001a.717.717 0 0 1 .235.03.417.417 0 0 1 .122.043c.035.02.051.06.049.12-.005.146-.056.253-.153.32a.793.793 0 0 1-.34.131c-.13.02-.266.026-.405.02l-.344-.016-1.001-.035a2.296 2.296 0 0 0-.236.004.777.777 0 0 0-.054.187c-.01.064-.016.131-.019.2-.015.441-.02.877-.013 1.306.007.43.012.866.016 1.308a20.923 20.923 0 0 0 1.455-.12.76.76 0 0 0 .097-.002.67.67 0 0 1 .092-.003c.082.003.14.027.171.073a.309.309 0 0 1 .044.19 1.214 1.214 0 0 1-.015.157.572.572 0 0 1-.043.145.308.308 0 0 1-.142.171.649.649 0 0 1-.214.069c-.08.011-.161.015-.246.012a3.49 3.49 0 0 0-.22-.001c-.166.002-.328.002-.487 0-.16 0-.32 0-.48.002l.01.958a45.894 45.894 0 0 0 .034 1.302c.009.201.02.377.035.527.014.15.03.253.048.306.04.087.088.144.142.172a.509.509 0 0 0 .216.047c.145.005.3-.019.462-.072.164-.053.323-.122.48-.208a4.142 4.142 0 0 0 .822-.594l.134-.108a.223.223 0 0 1 .155-.053.305.305 0 0 1 .169.061.703.703 0 0 1 .24.324.486.486 0 0 1 .03.178zm2.157 2.045a.357.357 0 0 1-.04.157 1.817 1.817 0 0 1-.074.167.284.284 0 0 1-.083.1.288.288 0 0 1-.117.048.818.818 0 0 1-.174.01l-1.602-.057a2.169 2.169 0 0 1-.103-.006.652.652 0 0 1-.123-.023.287.287 0 0 1-.104-.052c-.029-.023-.043-.057-.041-.102a.377.377 0 0 1 .11-.254.441.441 0 0 1 .246-.135c.078-.009.157-.013.236-.013.078.001.157-.001.236-.007.224-.004.448-.01.673-.016.224-.006.452-.005.683.003l.092.006c.033.003.064.01.093.022.03.01.052.029.069.054a.162.162 0 0 1 .023.098zm5.175-.452a.311.311 0 0 1-.063.193c-.039.047-.104.07-.194.066a.757.757 0 0 1-.292-.071 2.107 2.107 0 0 1-.23-.087.314.314 0 0 1-.126-.099.305.305 0 0 1-.051-.15 2.89 2.89 0 0 1-.009-.25c-.002-.83-.008-1.655-.017-2.472a46.69 46.69 0 0 0-.093-2.468 62.9 62.9 0 0 0-.189.832c-.06.278-.123.56-.188.845-.066.297-.128.601-.188.911a4.8 4.8 0 0 1-.265.897.805.805 0 0 1-.168.27c-.065.065-.163.095-.292.09a.452.452 0 0 1-.228-.06.633.633 0 0 1-.166-.16 1.08 1.08 0 0 1-.153-.334 10.413 10.413 0 0 1-.166-.574 17.415 17.415 0 0 1-.167-.702 55.522 55.522 0 0 1-.277-1.353 32.81 32.81 0 0 0-.085-.434l-.029.825a43.85 43.85 0 0 0-.026 1.61c0 .535.015 1.069.044 1.6.008.119.02.236.038.355.017.118.024.236.02.353-.004.105-.04.173-.11.203a.525.525 0 0 1-.229.04c-.224-.007-.394-.063-.51-.166-.116-.104-.17-.275-.162-.514.017-.49.022-.976.016-1.458a29.848 29.848 0 0 1 .03-1.817 115.763 115.763 0 0 1 .072-1.362 126.558 126.558 0 0 1 .101-1.644l.049-.712c.015-.21.03-.385.045-.525.014-.139.028-.222.04-.25.023-.056.046-.092.072-.107a.232.232 0 0 1 .122-.02.66.66 0 0 1 .37.113c.098.07.162.185.192.344.052.087.11.244.172.471.063.227.128.492.196.794.068.302.137.628.205.977a199.458 199.458 0 0 1 .364 1.894c.052.27.093.475.123.618.138-.692.278-1.38.42-2.064.142-.684.278-1.372.408-2.065.024-.117.049-.231.074-.344.026-.112.04-.227.045-.345a.678.678 0 0 0-.023-.204.657.657 0 0 1-.022-.199c.003-.085.031-.135.085-.152a.551.551 0 0 1 .18-.02 1.129 1.129 0 0 1 .47.138c.08.043.146.096.2.158a.298.298 0 0 1 .079.216 3.051 3.051 0 0 1-.051.448 31.021 31.021 0 0 1 .421 4.148c.026.601.044 1.197.052 1.79.01.591.025 1.184.048 1.776a1.147 1.147 0 0 1 .016.207zm4.958-1.164a.314.314 0 0 1-.087.198 1.335 1.335 0 0 1-.198.181 2.564 2.564 0 0 1-.235.16l-.199.117a7.932 7.932 0 0 1-.406.235 3.17 3.17 0 0 1-.413.186 2.653 2.653 0 0 1-.435.119 2.148 2.148 0 0 1-.464.032l-.095.009a1.662 1.662 0 0 1-.384-.059 1.341 1.341 0 0 1-.351-.152 1.165 1.165 0 0 1-.286-.25 1.02 1.02 0 0 1-.188-.36 2.209 2.209 0 0 1-.069-.39 6.74 6.74 0 0 1-.028-.47 20.968 20.968 0 0 1-.007-.477v-.417c-.016-1.24-.02-2.48-.011-3.72a15.392 15.392 0 0 1 .006-.851 3.96 3.96 0 0 1 .063-.618.932.932 0 0 1 .18-.413.688.688 0 0 1 .364-.225c.156-.043.362-.06.618-.051.255.009.51.02.768.033.257.013.515.024.774.033.078.003.157.002.236-.001a.717.717 0 0 1 .235.03.46.46 0 0 1 .122.043c.035.02.05.06.049.12-.005.146-.056.253-.153.32a.793.793 0 0 1-.34.131c-.13.02-.266.027-.405.02l-.344-.015-1.002-.035a2.296 2.296 0 0 0-.236.004.777.777 0 0 0-.053.186c-.01.065-.017.131-.019.2-.015.441-.02.877-.013 1.307.006.43.012.865.016 1.307a20.923 20.923 0 0 0 1.455-.12.615.615 0 0 0 .097-.002.67.67 0 0 1 .091-.003c.083.003.14.027.172.073a.309.309 0 0 1 .043.19c-.002.057-.006.11-.014.158a.572.572 0 0 1-.043.144.308.308 0 0 1-.142.171.649.649 0 0 1-.215.069 1.51 1.51 0 0 1-.245.013 3.49 3.49 0 0 0-.22-.002c-.166.002-.328.003-.487.001-.16-.001-.32 0-.48.002l.01.957a45.909 45.909 0 0 0 .034 1.303c.009.2.02.376.035.527.014.15.03.252.048.305.04.087.087.144.141.172a.509.509 0 0 0 .217.047c.145.005.3-.019.462-.072.163-.053.323-.122.48-.208a4.143 4.143 0 0 0 .822-.594l.133-.108a.223.223 0 0 1 .155-.052.305.305 0 0 1 .17.06.703.703 0 0 1 .24.324.486.486 0 0 1 .03.178zm2.157 2.045a.357.357 0 0 1-.04.157 1.475 1.475 0 0 1-.075.167.284.284 0 0 1-.083.1.288.288 0 0 1-.116.048.818.818 0 0 1-.174.01l-1.602-.056a2.169 2.169 0 0 1-.103-.007.652.652 0 0 1-.123-.023.287.287 0 0 1-.105-.052c-.028-.023-.042-.057-.04-.102a.377.377 0 0 1 .109-.254.441.441 0 0 1 .246-.134c.08-.01.158-.014.237-.013.078 0 .157-.002.236-.007l.672-.016c.225-.007.453-.006.684.002l.091.006a.35.35 0 0 1 .094.022c.03.011.052.03.069.054a.162.162 0 0 1 .023.098zm2.273.08a.357.357 0 0 1-.04.156 1.852 1.852 0 0 1-.074.168.284.284 0 0 1-.084.1.288.288 0 0 1-.116.048.818.818 0 0 1-.174.009l-1.602-.056a2.17 2.17 0 0 1-.103-.007.652.652 0 0 1-.123-.022.287.287 0 0 1-.104-.052c-.03-.024-.043-.058-.041-.102a.377.377 0 0 1 .109-.255.441.441 0 0 1 .246-.134c.08-.01.158-.014.237-.013.078 0 .157-.002.236-.007.224-.004.448-.01.672-.016.225-.006.453-.005.684.003.028 0 .058.003.091.006.034.003.065.01.094.021.03.011.052.03.069.054a.162.162 0 0 1 .023.098z" fill="#D0021B"/><path d="M180 194c52.849-3.706 66.082-75.69 85.162-113.463 4.553-9.012 12.888-16.351 22.838-10.362M290.223 67c2.612 7.006 3.411 3.991-5.223 8m20.818 23h64.13c5.648.744 5.133 9.51 5.29 14.946 2.363 81.463 23.884 95.65-35.035 91.373-12.26-.89-24.896-.811-36.591-4.613-2.517-.818-1.549-5.149-1.61-7.805-.582-25.392-3.002-60.378-1.54-88.076" stroke="#4A4A4A" stroke-width="2"/><path d="M94.966 110.455c29.942 0 59.9-1.023 89.824 0 12.742.435 16.428 34.04 16.723 39.052 1.003 17.056 5.42 89.843-8.143 105.95-6.197 7.36-26.447 3.643-29.333 3.322-38.646-4.29-70.779-1.489-73.075-44.6-3.003-56.396 1.984-56.854 1.984-92.322" stroke="#4A4A4A" stroke-width="2"/><path d="M118 135.961c51.603.58 33.277-4.066 57 3.039m-55 14c18.848 0 35.737-1.639 54-.72m137-32.002l45-.278m-43 17c32.886-1.627 19.328.547 41-4m-40 37c15.703-7.083 32.168-1.345 49-4m-49 16c46.611-.921 27.771 1.915 57-4m-247 52c15.7-.102 27.564-4.123 43-2.693" stroke="#D0021B" stroke-width="2" stroke-linecap="round" stroke-dasharray="2,5"/></g></svg>